G04 DipTrace 3.3.1.3*
G04 BottomSilk.gbr*
%MOIN*%
G04 #@! TF.FileFunction,Legend,Bot*
G04 #@! TF.Part,Single*
%ADD10C,0.009843*%
%ADD92C,0.00772*%
%FSLAX26Y26*%
G04*
G70*
G90*
G75*
G01*
G04 BotSilk*
%LPD*%
X7824014Y6218870D2*
D10*
X7924016D1*
Y5618925D1*
X7824014D1*
Y6218870D1*
X2974021Y1968917D2*
X2874016D1*
Y2268879D1*
X2974021D1*
Y1968917D1*
X3974000Y6518896D2*
X4874031D1*
Y6618898D1*
X3974000D1*
Y6518896D1*
X1974011Y2268879D2*
X2074016D1*
Y1968917D1*
X1974011D1*
Y2268879D1*
X6724021Y1218917D2*
X6624016D1*
Y1518879D1*
X6724021D1*
Y1218917D1*
X7707810Y6044196D2*
D92*
X7703056Y6046572D1*
X7698248Y6051381D1*
X7695871Y6056134D1*
Y6065695D1*
X7698248Y6070504D1*
X7703056Y6075257D1*
X7707810Y6077689D1*
X7714995Y6080065D1*
X7726988D1*
X7734118Y6077689D1*
X7738926Y6075257D1*
X7743680Y6070504D1*
X7746111Y6065695D1*
Y6056134D1*
X7743680Y6051381D1*
X7738926Y6046572D1*
X7734118Y6044196D1*
X7712618Y6016818D2*
X7714995Y6021571D1*
X7719803Y6026380D1*
X7726988Y6028756D1*
X7731741D1*
X7738926Y6026380D1*
X7743680Y6021571D1*
X7746111Y6016818D1*
Y6009633D1*
X7743680Y6004825D1*
X7738926Y6000071D1*
X7731741Y5997640D1*
X7726988D1*
X7719803Y6000071D1*
X7714995Y6004825D1*
X7712618Y6009633D1*
Y6016818D1*
Y5982200D2*
X7746111D1*
X7722180D2*
X7714995Y5975015D1*
X7712618Y5970207D1*
Y5963077D1*
X7714995Y5958269D1*
X7722180Y5955892D1*
X7746111D1*
X7722180D2*
X7714995Y5948707D1*
X7712618Y5943899D1*
Y5936769D1*
X7714995Y5931960D1*
X7722180Y5929528D1*
X7746111D1*
X7712618Y5914089D2*
X7762858D1*
X7719803D2*
X7715050Y5909281D1*
X7712618Y5904528D1*
Y5897343D1*
X7715050Y5892534D1*
X7719803Y5887781D1*
X7726988Y5885349D1*
X7731797D1*
X7738926Y5887781D1*
X7743735Y5892534D1*
X7746111Y5897343D1*
Y5904528D1*
X7743735Y5909281D1*
X7738926Y5914089D1*
X7712618Y5841225D2*
X7746111D1*
X7719803D2*
X7714995Y5845978D1*
X7712618Y5850787D1*
Y5857916D1*
X7714995Y5862725D1*
X7719803Y5867478D1*
X7726988Y5869910D1*
X7731741D1*
X7738926Y5867478D1*
X7743680Y5862725D1*
X7746111Y5857916D1*
Y5850787D1*
X7743680Y5845978D1*
X7738926Y5841225D1*
X7719803Y5799477D2*
X7714995Y5801854D1*
X7712618Y5809039D1*
Y5816224D1*
X7714995Y5823409D1*
X7719803Y5825786D1*
X7724556Y5823409D1*
X7726988Y5818601D1*
X7729365Y5806662D1*
X7731741Y5801854D1*
X7736550Y5799477D1*
X7738926D1*
X7743680Y5801854D1*
X7746111Y5809039D1*
Y5816224D1*
X7743680Y5823409D1*
X7738926Y5825786D1*
X7719803Y5757730D2*
X7714995Y5760107D1*
X7712618Y5767292D1*
Y5774477D1*
X7714995Y5781662D1*
X7719803Y5784038D1*
X7724556Y5781662D1*
X7726988Y5776853D1*
X7729365Y5764915D1*
X7731741Y5760107D1*
X7736550Y5757730D1*
X7738926D1*
X7743680Y5760107D1*
X7746111Y5767292D1*
Y5774477D1*
X7743680Y5781662D1*
X7738926Y5784038D1*
X2991417Y2381491D2*
Y2331251D1*
X2974670D1*
X2967485Y2333683D1*
X2962677Y2338436D1*
X2960300Y2343244D1*
X2957924Y2350374D1*
Y2362368D1*
X2960300Y2369553D1*
X2962677Y2374306D1*
X2967485Y2379114D1*
X2974670Y2381491D1*
X2991417D1*
X2906614Y2369553D2*
X2908991Y2374306D1*
X2913800Y2379114D1*
X2918553Y2381491D1*
X2928114D1*
X2932923Y2379114D1*
X2937676Y2374306D1*
X2940108Y2369553D1*
X2942484Y2362368D1*
Y2350374D1*
X2940108Y2343244D1*
X2937676Y2338436D1*
X2932923Y2333683D1*
X2928114Y2331251D1*
X2918553D1*
X2913800Y2333683D1*
X2908991Y2338436D1*
X2906614Y2343244D1*
X4455013Y6680182D2*
X4457390Y6684936D1*
X4462198Y6689744D1*
X4466952Y6692121D1*
X4476513D1*
X4481322Y6689744D1*
X4486075Y6684936D1*
X4488507Y6680182D1*
X4490883Y6672997D1*
Y6661004D1*
X4488507Y6653874D1*
X4486075Y6649066D1*
X4481322Y6644313D1*
X4476513Y6641881D1*
X4466952D1*
X4462198Y6644313D1*
X4457390Y6649066D1*
X4455013Y6653874D1*
Y6661004D1*
X4466952D1*
X4439574Y6665812D2*
X4418019D1*
X4410889Y6668189D1*
X4408457Y6670621D1*
X4406081Y6675374D1*
Y6682559D1*
X4408457Y6687312D1*
X4410889Y6689744D1*
X4418019Y6692121D1*
X4439574D1*
Y6641881D1*
X4357148Y6684936D2*
X4361901Y6689744D1*
X4369086Y6692121D1*
X4378648D1*
X4385833Y6689744D1*
X4390642Y6684936D1*
Y6680182D1*
X4388210Y6675374D1*
X4385833Y6672997D1*
X4381080Y6670621D1*
X4366710Y6665812D1*
X4361901Y6663436D1*
X4359525Y6661004D1*
X4357148Y6656251D1*
Y6649066D1*
X4361901Y6644313D1*
X4369086Y6641881D1*
X4378648D1*
X4385833Y6644313D1*
X4390642Y6649066D1*
X1874724Y2186953D2*
Y2165454D1*
X1872293Y2158269D1*
X1869916Y2155837D1*
X1865163Y2153460D1*
X1860354D1*
X1855601Y2155837D1*
X1853169Y2158269D1*
X1850793Y2165454D1*
Y2186954D1*
X1901033Y2186953D1*
X1874724Y2170207D2*
X1901033Y2153460D1*
X1877101Y2138021D2*
Y2116466D1*
X1874724Y2109336D1*
X1872293Y2106904D1*
X1867539Y2104528D1*
X1860354D1*
X1855601Y2106904D1*
X1853169Y2109336D1*
X1850793Y2116466D1*
Y2138021D1*
X1901033D1*
Y2050842D2*
X1850793D1*
X1901033Y2069965D1*
X1850793Y2089088D1*
X1901033D1*
X6557978Y1436862D2*
X6553169Y1441615D1*
X6550793Y1448800D1*
Y1458362D1*
X6553169Y1465547D1*
X6557978Y1470355D1*
X6562731D1*
X6567539Y1467923D1*
X6569916Y1465547D1*
X6572293Y1460794D1*
X6577101Y1446424D1*
X6579478Y1441615D1*
X6581909Y1439239D1*
X6586663Y1436862D1*
X6593848D1*
X6598601Y1441615D1*
X6601033Y1448800D1*
Y1458362D1*
X6598601Y1465547D1*
X6593848Y1470355D1*
X6581909Y1421423D2*
Y1392738D1*
X6577101D1*
X6572293Y1395114D1*
X6569916Y1397491D1*
X6567539Y1402300D1*
Y1409485D1*
X6569916Y1414238D1*
X6574724Y1419046D1*
X6581909Y1421423D1*
X6586663D1*
X6593848Y1419046D1*
X6598601Y1414238D1*
X6601033Y1409485D1*
Y1402299D1*
X6598601Y1397491D1*
X6593848Y1392738D1*
X6567539Y1377299D2*
X6601033D1*
X6581909D2*
X6574724Y1374867D1*
X6569916Y1370114D1*
X6567539Y1365305D1*
Y1358120D1*
Y1342681D2*
X6601033Y1328311D1*
X6567539Y1313996D1*
Y1286619D2*
X6569916Y1291372D1*
X6574724Y1296180D1*
X6581909Y1298557D1*
X6586663D1*
X6593848Y1296180D1*
X6598601Y1291372D1*
X6601033Y1286619D1*
Y1279434D1*
X6598601Y1274625D1*
X6593848Y1269872D1*
X6586663Y1267440D1*
X6581909D1*
X6574724Y1269872D1*
X6569916Y1274625D1*
X6567539Y1279434D1*
Y1286619D1*
M02*
