M48
INCH
T01C0.0191
T02C0.0276
T03C0.028
T04C0.0354
T05C0.0362
T06C0.0429
T07C0.0433
T08C0.046
T09C0.046
T10C0.0591
T11C0.0728
T12C0.1283
T13C0.1378
%
T01
X+091240Y+009689
X+082740Y+022689
X+080740Y+026689
X+080740Y+035189
X+076740Y+034689
X+076240Y+039689
X+079110Y+053394
X+055240Y+054189
X+052240Y+054189
X+049740Y+044189
X+042240Y+047716
X+038740Y+055189
X+037240Y+056189
X+044240Y+061689
X+046240Y+067689
X+023240Y+056189
X+020240Y+060159
X+019211Y+037718
X+006244Y+037718
X+008740Y+019689
X+012740Y+015689
X+017240Y+017689
X+018740Y+019189
X+032240Y+018189
X+035740Y+021689
X+039740Y+017689
X+042240Y+018189
X+050150Y+012024
X+061740Y+018689
X+061740Y+028189
X+098240Y+028189
X+103740Y+050689
X+106740Y+051689
X+120740Y+042689
X+122740Y+037689
T02
X+094740Y+007689
X+095055Y+007217
X+095370Y+007689
X+095685Y+007217
X+096000Y+007689
X+096807Y+005465G85X+096807Y+005937
X+093933Y+005465G85X+093933Y+005937
T03
X+016591Y+033839
X+015591Y+033839
X+036740Y+009189
X+037740Y+009189
X+042240Y+009189
X+043240Y+009189
X+047240Y+009189
X+048240Y+009189
X+052740Y+009189
X+053740Y+009189
X+072555Y+009189
X+073555Y+009189
X+085740Y+009189
X+086740Y+009189
X+120240Y+035689
X+121240Y+035689
X+121240Y+040689
X+120240Y+040689
X+120240Y+045689
X+121240Y+045689
X+121240Y+050689
X+120240Y+050689
X+120240Y+055189
X+121240Y+055189
X+070740Y+066689
X+069740Y+066689
X+065740Y+066689
X+064740Y+066689
X+060740Y+066689
X+059740Y+066689
X+054740Y+066689
X+053740Y+066689
X+029240Y+066689
X+028240Y+066689
X+022240Y+066689
X+021240Y+066689
X+016740Y+066689
X+015740Y+066689
T04
X+008681Y+016402G85X+008130Y+016402
X+008681Y+010220G85X+008130Y+010220
X+043240Y+020189
X+044240Y+020189
X+045240Y+020189
X+046240Y+020189
X+046240Y+023189
X+045240Y+023189
X+044240Y+023189
X+043240Y+023189
X+059740Y+054189
X+060740Y+054189
X+061740Y+054189
X+062740Y+054189
X+062740Y+057189
X+061740Y+057189
X+060740Y+057189
X+059740Y+057189
X+024240Y+057189
X+023240Y+057189
X+022240Y+057189
X+021240Y+057189
X+021240Y+054189
X+022240Y+054189
X+023240Y+054189
X+024240Y+054189
X+078740Y+021689
X+079740Y+021689
X+080740Y+021689
X+081740Y+021689
X+081740Y+018689
X+080740Y+018689
X+079740Y+018689
X+078740Y+018689
X+106240Y+043689
X+106240Y+044689
X+106240Y+045689
X+106240Y+046689
X+109240Y+046689
X+109240Y+045689
X+109240Y+044689
X+109240Y+043689
T05
X+008740Y+014689
X+008740Y+013705
X+008740Y+012917
X+008740Y+011933
T06
X+008240Y+043689
X+008240Y+044780
X+008240Y+045870
X+008240Y+046961
X+008240Y+048051
X+007122Y+047506
X+007122Y+046415
X+007122Y+045325
X+007122Y+044234
T07
X+079740Y+041189
X+079740Y+040189
X+079740Y+039189
X+079740Y+038189
X+079740Y+037189
X+079740Y+036189
X+078740Y+056689
X+078740Y+057689
X+078740Y+058689
X+078740Y+059689
X+078740Y+060689
X+078740Y+061689
X+078240Y+068689
X+079740Y+068689
X+069740Y+062689
X+069740Y+061689
X+068740Y+061689
X+068740Y+062689
X+067740Y+062689
X+067740Y+061689
X+066740Y+061689
X+066740Y+062689
X+065740Y+062689
X+065740Y+061689
X+064740Y+061689
X+064740Y+062689
X+063740Y+062689
X+063740Y+061689
X+062740Y+061689
X+062740Y+062689
X+061740Y+062689
X+061740Y+061689
X+060740Y+061689
X+060740Y+062689
X+059740Y+062689
X+059740Y+061689
X+058740Y+061689
X+058740Y+062689
X+057740Y+062689
X+057740Y+061689
X+056740Y+061689
X+056740Y+062689
X+055740Y+062689
X+055740Y+061689
X+054740Y+061689
X+054740Y+062689
X+053740Y+062689
X+053740Y+061689
X+048240Y+065689
X+047240Y+065689
X+046240Y+065689
X+045240Y+065689
X+044240Y+065689
X+043240Y+065689
X+042240Y+065689
X+041240Y+065689
X+040240Y+065689
X+035240Y+067689
X+034240Y+067689
X+031240Y+062689
X+031240Y+061689
X+030240Y+061689
X+030240Y+062689
X+029240Y+062689
X+029240Y+061689
X+028240Y+061689
X+028240Y+062689
X+027240Y+062689
X+027240Y+061689
X+026240Y+061689
X+026240Y+062689
X+025240Y+062689
X+025240Y+061689
X+024240Y+061689
X+024240Y+062689
X+023240Y+062689
X+023240Y+061689
X+022240Y+061689
X+022240Y+062689
X+021240Y+062689
X+020240Y+062689
X+020240Y+061689
X+019240Y+061689
X+019240Y+062689
X+018240Y+062689
X+017240Y+062689
X+016240Y+062689
X+016240Y+061689
X+017240Y+061689
X+018240Y+061689
X+015240Y+061689
X+015240Y+062689
X+021240Y+061689
X+011740Y+068689
X+010240Y+068689
X+041240Y+057689
X+042240Y+057689
X+043240Y+057689
X+044240Y+057689
X+045240Y+057689
X+046240Y+057689
X+047240Y+057689
X+029240Y+022189
X+029240Y+021189
X+029240Y+020189
X+020240Y+020189
X+020240Y+021189
X+020240Y+022189
X+011591Y+021839
X+011591Y+022839
X+011591Y+023839
X+018740Y+008189
X+020240Y+008189
X+036740Y+013689
X+036740Y+014689
X+037740Y+014689
X+037740Y+013689
X+038740Y+013689
X+038740Y+014689
X+039740Y+014689
X+039740Y+013689
X+040740Y+013689
X+040740Y+014689
X+041740Y+014689
X+041740Y+013689
X+042740Y+013689
X+042740Y+014689
X+043740Y+014689
X+043740Y+013689
X+044740Y+013689
X+044740Y+014689
X+045740Y+014689
X+045740Y+013689
X+046740Y+013689
X+046740Y+014689
X+047740Y+014689
X+047740Y+013689
X+048740Y+013689
X+048740Y+014689
X+049740Y+014689
X+049740Y+013689
X+050740Y+013689
X+050740Y+014689
X+051740Y+014689
X+051740Y+013689
X+052740Y+013689
X+052740Y+014689
X+062240Y+008189
X+063740Y+008189
X+066740Y+012689
X+066740Y+013689
X+066740Y+014689
X+072240Y+014689
X+072240Y+013689
X+073240Y+013689
X+074240Y+013689
X+074240Y+014689
X+073240Y+014689
X+075240Y+014689
X+075240Y+013689
X+076240Y+013689
X+076240Y+014689
X+077240Y+014689
X+077240Y+013689
X+078240Y+013689
X+078240Y+014689
X+079240Y+014689
X+079240Y+013689
X+080240Y+013689
X+080240Y+014689
X+081240Y+014689
X+081240Y+013689
X+082240Y+013689
X+082240Y+014689
X+083240Y+014689
X+084240Y+014689
X+084240Y+013689
X+083240Y+013689
X+085240Y+013689
X+085240Y+014689
X+086240Y+014689
X+086240Y+013689
X+087240Y+013689
X+087240Y+014689
X+088240Y+014689
X+088240Y+013689
X+102240Y+023189
X+102240Y+024189
X+103240Y+024189
X+103240Y+023189
X+104240Y+023189
X+104240Y+024189
X+105240Y+024189
X+105240Y+023189
X+106240Y+023189
X+106240Y+024189
X+107240Y+024189
X+107240Y+023189
X+108240Y+023189
X+108240Y+024189
X+109240Y+024189
X+109240Y+023189
X+110240Y+023189
X+110240Y+024189
X+111240Y+024189
X+111240Y+023189
X+112240Y+023189
X+112240Y+024189
X+113240Y+024189
X+113240Y+023189
X+114240Y+023189
X+114240Y+024189
X+115240Y+024189
X+115240Y+023189
X+116240Y+023189
X+116240Y+024189
X+117240Y+024189
X+117240Y+023189
X+118240Y+023189
X+118240Y+024189
X+119240Y+024189
X+119240Y+023189
X+120240Y+023189
X+120240Y+024189
X+121240Y+024189
X+121240Y+023189
X+122240Y+023189
X+122240Y+024189
X+115740Y+037189
X+114740Y+037189
X+114740Y+038189
X+115740Y+038189
X+115740Y+039189
X+114740Y+039189
X+114740Y+040189
X+115740Y+040189
X+115740Y+041189
X+114740Y+041189
X+114740Y+042189
X+115740Y+042189
X+115740Y+043189
X+114740Y+043189
X+114740Y+044189
X+114740Y+045189
X+114740Y+046189
X+115740Y+046189
X+115740Y+045189
X+115740Y+044189
X+115740Y+047189
X+114740Y+047189
X+114740Y+048189
X+114740Y+049189
X+115740Y+049189
X+115740Y+048189
X+115740Y+050189
X+114740Y+050189
X+114740Y+051189
X+115740Y+051189
X+115740Y+052189
X+114740Y+052189
X+114740Y+053189
X+115740Y+053189
X+128490Y+053439
X+128490Y+052439
X+128490Y+051439
X+128490Y+050439
X+128490Y+049439
X+128490Y+048439
X+128490Y+047439
X+128490Y+041939
X+128490Y+040939
X+132240Y+058689
X+132240Y+060189
T08
X+037740Y+026189
X+026240Y+015689
X+023240Y+015689
X+015091Y+027839
X+031240Y+057189
X+069740Y+052189
X+103240Y+054189
X+110240Y+035189
X+125490Y+035439
X+073240Y+018189
T09
X+037740Y+020189
X+032240Y+015689
X+017240Y+015689
X+021091Y+027839
X+031240Y+051189
X+069740Y+058189
X+073240Y+024189
X+104240Y+035189
X+109240Y+054189
X+131490Y+035439
T10
X+008866Y+029238
X+007614Y+029238
X+007614Y+035439
X+008866Y+035439
T11
X+008240Y+034189
X+008240Y+032339
X+008240Y+030488
T12
X+007681Y+040951
X+007681Y+050789
T13
X+033933Y+046689
X+033933Y+029161
X+052240Y+029161
X+052240Y+046689
X+090102Y+055772
X+097740Y+055772
X+097740Y+067189
X+090102Y+067189
X+133240Y+069189
X+133240Y+006689
X+098240Y+014689
X+005740Y+006689
X+005740Y+069189
T00
M30
