G04 DipTrace 3.3.1.3*
G04 Top.gbr*
%MOIN*%
G04 #@! TF.FileFunction,Copper,L1,Top*
G04 #@! TF.Part,Single*
%AMOUTLINE0*
4,1,8,
-0.009039,0.021824,
0.009039,0.021824,
0.021824,0.009039,
0.021824,-0.009039,
0.009039,-0.021824,
-0.009039,-0.021824,
-0.021824,-0.009039,
-0.021824,0.009039,
-0.009039,0.021824,
0*%
G04 #@! TA.AperFunction,Conductor*
%ADD13C,0.03937*%
%ADD14C,0.016*%
G04 #@! TA.AperFunction,ComponentPad*
%ADD16C,0.07*%
%ADD17C,0.07*%
%ADD18R,0.066929X0.066929*%
%ADD19C,0.066929*%
%ADD20C,0.05*%
%ADD21R,0.05X0.05*%
%ADD22R,0.090551X0.090551*%
%ADD23C,0.090551*%
%ADD24R,0.066535X0.066535*%
%ADD25C,0.066535*%
%ADD26C,0.187402*%
%ADD27C,0.062992*%
%ADD28R,0.062992X0.062992*%
%ADD29O,0.11811X0.062992*%
%ADD30R,0.102362X0.094488*%
G04 #@! TA.AperFunction,ComponentPad*
%ADD31R,0.074803X0.074803*%
%ADD32C,0.074803*%
%ADD33R,0.122047X0.122047*%
%ADD34C,0.122047*%
%ADD35C,0.098425*%
%ADD36R,0.059055X0.059055*%
%ADD37C,0.059055*%
%ADD38C,0.047244*%
%ADD39O,0.066929X0.106299*%
G04 #@! TA.AperFunction,ViaPad*
%ADD40C,0.04*%
G04 #@! TA.AperFunction,ComponentPad*
%ADD98OUTLINE0*%
%FSLAX26Y26*%
G04*
G70*
G90*
G75*
G01*
G04 Top*
%LPD*%
X1159055Y2383858D2*
D13*
X1409055D1*
X1874016Y1918898D1*
X7911020Y5339370D2*
Y5255902D1*
X7724016Y5068898D1*
X6324016D1*
X6174016Y5218898D1*
Y5418898D1*
X10224016Y2318898D2*
X8574016D1*
X8524016Y2268898D1*
X8274016D1*
X4524016Y2018898D2*
Y1918898D1*
X4574016Y1868898D1*
X6174016D1*
X1874016Y1918898D2*
X4524016D1*
X8274016Y2268898D2*
X8374016D1*
Y2618898D1*
X8174016Y2818898D1*
X6174016D1*
X6974016Y6668898D2*
X6824016Y6818898D1*
X6524016D1*
X6474016Y6768898D1*
Y6668898D1*
X874016Y1468898D2*
X1074016D1*
X1324016Y1218898D1*
X1874016D1*
X2024016Y1068898D1*
Y818898D1*
X3574016D1*
X3674016Y918898D1*
X12024016Y5518898D2*
Y5618898D1*
X12124016Y5718898D1*
X12674016D1*
X12874016Y5518898D1*
Y5343898D1*
X12849016D1*
X6074016Y5418898D2*
Y5218898D1*
X5824016Y4968898D1*
X2474016D1*
X2224016Y5218898D1*
Y5418898D1*
X12024016Y4068898D2*
Y4218898D1*
X12074016Y4268898D1*
X2024016Y818898D2*
D3*
X7624016Y3968898D2*
X7674016Y3918898D1*
X7974016D1*
X2124016Y6668898D2*
Y6818898D1*
X2024016Y6918898D1*
X1674016D1*
X1574016Y6818898D1*
Y6668898D1*
X4624016Y6768898D2*
X3824016D1*
X3624016Y6568898D1*
X3274016D1*
X3024016Y6818898D1*
X2824016D1*
X2724016Y6918898D1*
X2224016D1*
X2124016Y6818898D1*
X5374016Y6668898D2*
X5274016Y6768898D1*
X4624016D1*
X5974016Y6668898D2*
X5824016Y6818898D1*
X5424016D1*
X5374016Y6768898D1*
Y6668898D1*
X6474016D2*
X6324016Y6818898D1*
X6024016D1*
X5974016Y6768898D1*
Y6668898D1*
X7255512Y918898D2*
X7224016D1*
Y818898D1*
X7274016Y768898D1*
X8424016D1*
X8574016Y918898D1*
X6374016Y818898D2*
X6474016Y718898D1*
X6824016D1*
X7024016Y918898D1*
X7255512D1*
X5274016D2*
Y1018898D1*
X5324016Y1068898D1*
X6274016D1*
X6374016Y968898D1*
Y818898D1*
X4724016Y918898D2*
Y818898D1*
X4774016Y768898D1*
X5224016D1*
X5274016Y818898D1*
Y918898D1*
X4224016D2*
Y868898D1*
X4324016Y768898D1*
X4574016D1*
X4724016Y918898D1*
X3674016D2*
Y818898D1*
X3724016Y768898D1*
X4124016D1*
X4224016Y868898D1*
X12024016Y3568898D2*
Y2868898D1*
X11874016Y2718898D1*
X9924016D1*
X9824016Y2818898D1*
X2824016Y6668898D2*
Y6818898D1*
X12074016Y4268898D2*
X12274016D1*
X12374016Y4368898D1*
X12674016D1*
X12849016Y4193898D1*
X9680709Y570079D2*
X9393307D1*
X840551Y1640157D2*
Y1652362D1*
X824016Y1668898D1*
Y1768898D1*
X724016Y1868898D1*
X574016D1*
X474016Y1768898D1*
Y1654076D1*
X482283Y1662344D1*
Y1644094D1*
X840551Y1022047D2*
Y935433D1*
X824016Y918898D1*
X624016D1*
X524803Y1018110D1*
X482283D1*
X9393307Y570079D2*
X1322835D1*
X870866Y1022047D1*
X840551D1*
X1921081Y3771832D2*
X624409D1*
X6074016Y5718898D2*
D14*
Y5768898D1*
X6024016Y5818898D1*
X5124016D1*
X4924016Y5618898D1*
X3724016D1*
X3774016Y2618898D2*
X4324016D1*
X4424016Y2518898D1*
Y2318898D1*
X11024016Y3518898D2*
Y3318898D1*
X10924016Y3218898D1*
X7774016D1*
X7674016Y3318898D1*
Y3468898D1*
X3724016Y5618898D2*
X3624016Y5518898D1*
X2974016D1*
X2674016Y5818898D1*
X2224016D1*
X1924016D1*
X1824016Y5718898D1*
Y5418898D1*
X1724016Y5318898D1*
X624016D1*
X574016Y5268898D1*
Y4618898D1*
X660433Y4532480D1*
X712205D1*
X2224016Y5718898D2*
Y5818898D1*
X4424016Y2318898D2*
X4524016Y2218898D1*
X4774016D1*
X4871370Y2316252D1*
Y2516252D1*
X4924016Y2568898D1*
X7924016D1*
X7974016Y2518898D1*
Y2168898D1*
X2624016Y1568898D2*
Y1418898D1*
X2774016Y1268898D1*
X3424016D1*
Y1518898D1*
X3474016Y1568898D1*
X3724016D1*
X3774016Y1518898D1*
Y1468898D1*
X4024016Y1718898D1*
X6424016D1*
X6674016Y1468898D1*
X5524016Y5418898D2*
X5224016D1*
X4524016Y6568898D2*
Y6468898D1*
X4474016Y6418898D1*
X3874016D1*
X3424016Y5968898D1*
X2224016D1*
X2124016Y6068898D1*
Y6168898D1*
X10674016Y5168898D2*
X10774016Y5268898D1*
X10924016D1*
X10974016Y5318898D1*
X11474016D1*
X8174016Y1868898D2*
X8424016D1*
X8824016Y1468898D1*
X10374016Y5068898D2*
X10824016D1*
X10974016Y5218898D1*
X11474016D1*
X4224016Y1818898D2*
X3224016D1*
X7324016Y2418898D2*
X7724016D1*
X7874016Y2268898D1*
Y2168898D1*
X1274016Y1568898D2*
D13*
X874016Y1968898D1*
X8724016Y1468898D2*
D14*
X8574016Y1618898D1*
X8124016D1*
X7874016Y1868898D1*
X3574016Y2168898D2*
X5974016D1*
X6074016Y2068898D1*
X10074016D1*
X10324016Y2318898D1*
X5015016Y1202437D2*
Y1177898D1*
X5024016Y1168898D1*
X6824016D1*
X7024016Y1368898D1*
Y1618898D1*
X7074016Y1668898D1*
X7424016D1*
X7524016Y1768898D1*
Y1898081D1*
X7594832Y1968898D1*
X10074016D1*
X10424016Y2318898D1*
X7874016Y6068898D2*
X7974016D1*
X8024016Y6118898D1*
Y6318898D1*
X7324016Y7018898D1*
X3474016D1*
X3424016Y6968898D1*
Y6768898D1*
X7874016Y5968898D2*
X7724016D1*
X7674016Y6018898D1*
Y6518898D1*
X7274016Y6918898D1*
X3574016D1*
X3524016Y6868898D1*
Y6768898D1*
X2024016Y6015906D2*
X2171024Y5868898D1*
X3924016D1*
X4224016Y6168898D1*
X4424016D1*
X3974016Y1468898D2*
X4124016Y1618898D1*
X5665110D1*
X6015110Y1268898D1*
X6674016D1*
X12274016Y3768898D2*
X11874016D1*
X11808711Y3703593D1*
Y3503593D1*
X11774016Y3468898D1*
X11424016D1*
X11274016Y3618898D1*
Y3968898D1*
X11324016Y4018898D1*
X11474016D1*
X1724016Y1768898D2*
X3024016D1*
X3074016Y1718898D1*
X3874016D1*
X3924016Y1768898D1*
X6174016Y5718898D2*
Y5618898D1*
X6074016Y5518898D1*
X3874016D1*
X4524016Y2318898D2*
Y2468898D1*
X4724016Y2668898D1*
X8074016D1*
X10424016Y3518898D2*
X8074016D1*
X2324016Y5618898D2*
X2124016D1*
X1924016Y5418898D1*
Y4568898D1*
X1833071Y4477953D1*
X824016D1*
X3874016Y5518898D2*
Y5418898D1*
X3824016Y5368898D1*
X2924016D1*
X2674016Y5618898D1*
X2324016D1*
X8074016Y2668898D2*
Y2168898D1*
X9124016Y968898D2*
D13*
X9374016D1*
X9474016Y868898D1*
Y768898D1*
X4724016Y5768898D2*
Y5868898D1*
X4674016Y5918898D1*
X4474016D1*
X4424016Y5868898D1*
Y5768898D1*
X4974016Y4418898D2*
D14*
X5074016Y4318898D1*
X9074016D1*
X9274016Y4118898D1*
X10974016D1*
X11274016Y4418898D1*
X11474016D1*
X4224016Y4771583D2*
X11245390D1*
X11298075Y4718898D1*
X11474016D1*
Y4818898D2*
X11374016D1*
X11224016Y4968898D1*
X8667520D1*
X8049980Y5586437D1*
X6656476D1*
X6324016Y5918898D1*
X5174016D1*
X5024016Y6068898D1*
X4374016D1*
X4324016Y6018898D1*
Y5768898D1*
X2024016Y2118898D2*
X2924016D1*
X4724016D1*
X4874016Y1968898D1*
X6679008D1*
X6824016Y1823890D1*
Y1418898D1*
X6774016Y1368898D1*
X6674016D1*
X4324016Y918898D2*
X4566559Y1161441D1*
X4766559D1*
X4974016Y1368898D1*
X7355512Y918898D2*
X7589034Y1152420D1*
X8507538D1*
X8724016Y1368898D1*
X2224016Y6668898D2*
X2138707Y6583589D1*
X2038707D1*
X1724016Y6268898D1*
X2924016Y6668898D2*
X2633463Y6378345D1*
X1933463D1*
X1824016Y6268898D1*
X12124016Y5518898D2*
Y5418898D1*
X11924016Y5218898D1*
X11574016D1*
X12124016Y5068898D2*
Y4918898D1*
X12074016Y4868898D1*
X11974016D1*
X11724016Y5118898D1*
X11574016D1*
X12124016Y4568898D2*
X11674016Y5018898D1*
X11574016D1*
X6074016Y6668898D2*
Y6568898D1*
X6024016Y6518898D1*
X5824016D1*
X5574016Y6268898D1*
X6574016Y6668898D2*
Y6518898D1*
X6517400Y6462282D1*
X5867400D1*
X5674016Y6268898D1*
X7074016Y6668898D2*
Y6518898D1*
X6946539Y6391421D1*
X5896539D1*
X5774016Y6268898D1*
X4824016Y6568898D2*
X4769551Y6623362D1*
X3864583D1*
X3260118Y6018898D1*
X2974016D1*
X2924016Y6068898D1*
Y6168898D1*
X3774016Y918898D2*
X4100255Y1245136D1*
X4750255D1*
X4874016Y1368898D1*
D40*
X1921081Y3771832D3*
X624409D3*
X1274016Y1568898D3*
X874016Y1968898D3*
X9124016Y968898D3*
D3*
X7911020Y5339370D3*
X1874016Y1918898D3*
X6174016Y1868898D3*
X8274016Y2268898D3*
X6174016Y2818898D3*
X9824016D3*
X4624016Y6768898D3*
X12074016Y4268898D3*
X7624016Y3968898D3*
X7674016Y3468898D3*
X3724016Y5618898D3*
X5224016Y5418898D3*
X5524016D3*
X10674016Y5168898D3*
X10374016Y5068898D3*
X3224016Y1818898D3*
X4224016D3*
X3574016Y2168898D3*
X5015016Y1202437D3*
X4424016Y6168898D3*
X2024016Y6015906D3*
X12274016Y3768898D3*
X3924016Y1768898D3*
X1724016D3*
X2324016Y5618898D3*
X3874016Y5518898D3*
X8074016Y3518898D3*
Y2668898D3*
X4974016Y4418898D3*
X4224016Y4771583D3*
D16*
X3774016Y2018898D3*
D17*
Y2618898D3*
D16*
X13149016Y3543898D3*
D17*
X12549016D3*
D18*
X7974016Y4118898D3*
D19*
Y4018898D3*
Y3918898D3*
Y3818898D3*
Y3718898D3*
Y3618898D3*
D18*
X7874016Y6168898D3*
D19*
Y6068898D3*
Y5968898D3*
Y5868898D3*
Y5768898D3*
Y5668898D3*
D20*
X1659055Y3383858D3*
D21*
X1559055D3*
D20*
X3774016Y918898D3*
D21*
X3674016D3*
D20*
X5374016D3*
D21*
X5274016D3*
D20*
X4824016D3*
D21*
X4724016D3*
D20*
X4324016D3*
D21*
X4224016D3*
D20*
X7355512D3*
D21*
X7255512D3*
D20*
X8674016D3*
D21*
X8574016D3*
D20*
X2224016Y6668898D3*
D21*
X2124016D3*
D20*
X1674016D3*
D21*
X1574016D3*
D20*
X2924016D3*
D21*
X2824016D3*
D20*
X12124016Y5518898D3*
D21*
X12024016D3*
D20*
X12124016Y5068898D3*
D21*
X12024016D3*
D20*
X12124016Y4568898D3*
D21*
X12024016D3*
D20*
X12124016Y4068898D3*
D21*
X12024016D3*
D20*
X12124016Y3568898D3*
D21*
X12024016D3*
D20*
X5474016Y6668898D3*
D21*
X5374016D3*
D20*
X6074016D3*
D21*
X5974016D3*
D20*
X6574016D3*
D21*
X6474016D3*
D20*
X7074016D3*
D21*
X6974016D3*
D18*
X2924016Y2018898D3*
D19*
Y2118898D3*
Y2218898D3*
D18*
X4024016Y6568898D3*
D19*
X4124016D3*
X4224016D3*
X4324016D3*
X4424016D3*
X4524016D3*
X4624016D3*
X4724016D3*
X4824016D3*
D18*
X12849016Y4093898D3*
D19*
Y4193898D3*
D18*
X3124016Y6268898D3*
D19*
Y6168898D3*
X3024016Y6268898D3*
Y6168898D3*
X2924016Y6268898D3*
Y6168898D3*
X2824016Y6268898D3*
Y6168898D3*
X2724016Y6268898D3*
Y6168898D3*
X2624016Y6268898D3*
Y6168898D3*
X2524016Y6268898D3*
Y6168898D3*
X2424016Y6268898D3*
Y6168898D3*
X2324016Y6268898D3*
Y6168898D3*
X2224016Y6268898D3*
Y6168898D3*
X2124016Y6268898D3*
Y6168898D3*
X2024016Y6268898D3*
Y6168898D3*
X1924016Y6268898D3*
Y6168898D3*
X1824016Y6268898D3*
Y6168898D3*
X1724016Y6268898D3*
Y6168898D3*
X1624016Y6268898D3*
Y6168898D3*
X1524016Y6268898D3*
Y6168898D3*
D18*
X6974016Y6268898D3*
D19*
Y6168898D3*
X6874016Y6268898D3*
Y6168898D3*
X6774016Y6268898D3*
Y6168898D3*
X6674016Y6268898D3*
Y6168898D3*
X6574016Y6268898D3*
Y6168898D3*
X6474016Y6268898D3*
Y6168898D3*
X6374016Y6268898D3*
Y6168898D3*
X6274016Y6268898D3*
Y6168898D3*
X6174016Y6268898D3*
Y6168898D3*
X6074016Y6268898D3*
Y6168898D3*
X5974016Y6268898D3*
Y6168898D3*
X5874016Y6268898D3*
Y6168898D3*
X5774016Y6268898D3*
Y6168898D3*
X5674016Y6268898D3*
Y6168898D3*
X5574016Y6268898D3*
Y6168898D3*
X5474016Y6268898D3*
Y6168898D3*
X5374016Y6268898D3*
Y6168898D3*
D18*
X11574016Y3718898D3*
D19*
X11474016D3*
X11574016Y3818898D3*
X11474016D3*
X11574016Y3918898D3*
X11474016D3*
X11574016Y4018898D3*
X11474016D3*
X11574016Y4118898D3*
X11474016D3*
X11574016Y4218898D3*
X11474016D3*
X11574016Y4318898D3*
X11474016D3*
X11574016Y4418898D3*
X11474016D3*
X11574016Y4518898D3*
X11474016D3*
X11574016Y4618898D3*
X11474016D3*
X11574016Y4718898D3*
X11474016D3*
X11574016Y4818898D3*
X11474016D3*
X11574016Y4918898D3*
X11474016D3*
X11574016Y5018898D3*
X11474016D3*
X11574016Y5118898D3*
X11474016D3*
X11574016Y5218898D3*
X11474016D3*
X11574016Y5318898D3*
X11474016D3*
D18*
X7224016Y1368898D3*
D19*
Y1468898D3*
X7324016Y1368898D3*
Y1468898D3*
X7424016Y1368898D3*
Y1468898D3*
X7524016Y1368898D3*
Y1468898D3*
X7624016Y1368898D3*
Y1468898D3*
X7724016Y1368898D3*
Y1468898D3*
X7824016Y1368898D3*
Y1468898D3*
X7924016Y1368898D3*
Y1468898D3*
X8024016Y1368898D3*
Y1468898D3*
X8124016Y1368898D3*
Y1468898D3*
X8224016Y1368898D3*
Y1468898D3*
X8324016Y1368898D3*
Y1468898D3*
X8424016Y1368898D3*
Y1468898D3*
X8524016Y1368898D3*
Y1468898D3*
X8624016Y1368898D3*
Y1468898D3*
X8724016Y1368898D3*
Y1468898D3*
X8824016Y1368898D3*
Y1468898D3*
D18*
X3674016Y1368898D3*
D19*
Y1468898D3*
X3774016Y1368898D3*
Y1468898D3*
X3874016Y1368898D3*
Y1468898D3*
X3974016Y1368898D3*
Y1468898D3*
X4074016Y1368898D3*
Y1468898D3*
X4174016Y1368898D3*
Y1468898D3*
X4274016Y1368898D3*
Y1468898D3*
X4374016Y1368898D3*
Y1468898D3*
X4474016Y1368898D3*
Y1468898D3*
X4574016Y1368898D3*
Y1468898D3*
X4674016Y1368898D3*
Y1468898D3*
X4774016Y1368898D3*
Y1468898D3*
X4874016Y1368898D3*
Y1468898D3*
X4974016Y1368898D3*
Y1468898D3*
X5074016Y1368898D3*
Y1468898D3*
X5174016Y1368898D3*
Y1468898D3*
X5274016Y1368898D3*
Y1468898D3*
D22*
X7824016Y6868898D3*
D23*
X7974016D3*
D24*
X824016Y4368898D3*
D25*
Y4477953D3*
Y4587008D3*
Y4696063D3*
Y4805118D3*
X712205Y4423425D3*
Y4532480D3*
Y4641535D3*
Y4750591D3*
D26*
X768111Y4095079D3*
Y5078937D3*
D18*
X3424016Y6768898D3*
D19*
X3524016D3*
D22*
X1024016Y6868898D3*
D23*
X1174016D3*
D22*
X6224016Y818898D3*
D23*
X6374016D3*
D18*
X10224016Y2318898D3*
D19*
Y2418898D3*
X10324016Y2318898D3*
Y2418898D3*
X10424016Y2318898D3*
Y2418898D3*
X10524016Y2318898D3*
Y2418898D3*
X10624016Y2318898D3*
Y2418898D3*
X10724016Y2318898D3*
Y2418898D3*
X10824016Y2318898D3*
Y2418898D3*
X10924016Y2318898D3*
Y2418898D3*
X11024016Y2318898D3*
Y2418898D3*
X11124016Y2318898D3*
Y2418898D3*
X11224016Y2318898D3*
Y2418898D3*
X11324016Y2318898D3*
Y2418898D3*
X11424016Y2318898D3*
Y2418898D3*
X11524016Y2318898D3*
Y2418898D3*
X11624016Y2318898D3*
Y2418898D3*
X11724016Y2318898D3*
Y2418898D3*
X11824016Y2318898D3*
Y2418898D3*
X11924016Y2318898D3*
Y2418898D3*
X12024016Y2318898D3*
Y2418898D3*
X12124016Y2318898D3*
Y2418898D3*
X12224016Y2318898D3*
Y2418898D3*
D22*
X13224016Y5868898D3*
D23*
Y6018898D3*
D27*
X874016Y1468898D3*
Y1370472D3*
Y1291732D3*
D28*
Y1193307D3*
D29*
X840551Y1640157D3*
Y1022047D3*
D30*
X482283Y1644094D3*
Y1018110D3*
D22*
X1874016Y818898D3*
D23*
X2024016D3*
D18*
X4124016Y5768898D3*
D19*
X4224016D3*
X4324016D3*
X4424016D3*
X4524016D3*
X4624016D3*
X4724016D3*
D16*
X1724016Y1568898D3*
D17*
X2324016D3*
D16*
X3224016D3*
D17*
X2624016D3*
D16*
X7324016Y2418898D3*
D17*
Y1818898D3*
D16*
X3124016Y5118898D3*
D17*
Y5718898D3*
D16*
X6974016Y5818898D3*
D17*
Y5218898D3*
D16*
X10924016Y5418898D3*
D17*
X10324016D3*
D16*
X2109055Y2783858D3*
D17*
X1509055D3*
D16*
X10424016Y3518898D3*
D17*
X11024016D3*
D31*
X1159055Y2183858D3*
D32*
Y2283858D3*
Y2383858D3*
D18*
X2024016Y2218898D3*
D19*
Y2118898D3*
Y2018898D3*
D18*
X6674016Y1268898D3*
D19*
Y1368898D3*
Y1468898D3*
D33*
X824016Y3418898D3*
D34*
Y3233858D3*
Y3048819D3*
D35*
X886614Y2923819D3*
X761417D3*
Y3543898D3*
X886614D3*
D36*
X2124016Y5418898D3*
D37*
X2224016D3*
X2324016D3*
X2424016D3*
Y5718898D3*
X2324016D3*
X2224016D3*
X2124016D3*
D36*
X5974016Y5418898D3*
D37*
X6074016D3*
X6174016D3*
X6274016D3*
Y5718898D3*
X6174016D3*
X6074016D3*
X5974016D3*
D36*
X10624016Y4668898D3*
D37*
Y4568898D3*
Y4468898D3*
Y4368898D3*
X10924016D3*
Y4468898D3*
Y4568898D3*
Y4668898D3*
D36*
X4324016Y2018898D3*
D37*
X4424016D3*
X4524016D3*
X4624016D3*
Y2318898D3*
X4524016D3*
X4424016D3*
X4324016D3*
D36*
X7874016Y1868898D3*
D37*
X7974016D3*
X8074016D3*
X8174016D3*
Y2168898D3*
X8074016D3*
X7974016D3*
X7874016D3*
D18*
X12849016Y4743898D3*
D19*
Y4843898D3*
Y4943898D3*
Y5043898D3*
Y5143898D3*
Y5243898D3*
Y5343898D3*
D98*
X9474016Y768898D3*
D38*
X9505512Y721654D3*
X9537008Y768898D3*
X9568504Y721654D3*
X9600000Y768898D3*
D39*
X9393307Y570079D3*
X9680709D3*
M02*
