G04 DipTrace 3.3.1.3*
G04 BottomAssy.gbr*
%MOIN*%
G04 #@! TF.FileFunction,Drawing,Bot*
G04 #@! TF.Part,Single*
%ADD10C,0.009843*%
%ADD97C,0.003088*%
%FSLAX26Y26*%
G04*
G70*
G90*
G75*
G01*
G04 BotAssy*
%LPD*%
X7814177Y6248031D2*
D10*
Y5589764D1*
X2983861Y1929528D2*
Y2308268D1*
X3945276Y6509058D2*
X4902756D1*
X1964171Y2308268D2*
Y1929528D1*
X6733861Y1179528D2*
Y1558268D1*
X7775878Y6018364D2*
D97*
X7795974D1*
Y6009742D1*
X7795001Y6006868D1*
X7794051Y6005917D1*
X7792149Y6004966D1*
X7789275D1*
X7787352Y6005917D1*
X7786401Y6006868D1*
X7785451Y6009742D1*
X7784478Y6006868D1*
X7783527Y6005917D1*
X7781626Y6004966D1*
X7779703D1*
X7777801Y6005917D1*
X7776829Y6006868D1*
X7775878Y6009742D1*
Y6018364D1*
X7785451D2*
Y6009742D1*
X7775878Y5993043D2*
X7776829Y5994966D1*
X7778752Y5996867D1*
X7780653Y5997840D1*
X7783527Y5998791D1*
X7788325D1*
X7791177Y5997840D1*
X7793100Y5996867D1*
X7795001Y5994966D1*
X7795974Y5993043D1*
Y5989218D1*
X7795001Y5987317D1*
X7793100Y5985393D1*
X7791177Y5984443D1*
X7788325Y5983492D1*
X7783527D1*
X7780653Y5984443D1*
X7778752Y5985393D1*
X7776829Y5987317D1*
X7775878Y5989218D1*
Y5993043D1*
X7795974Y5961996D2*
X7775878Y5969667D1*
X7795974Y5977316D1*
X7789275Y5974442D2*
Y5964870D1*
X7785451Y5955820D2*
Y5947220D1*
X7784478Y5944346D1*
X7783527Y5943373D1*
X7781626Y5942423D1*
X7779703D1*
X7777801Y5943373D1*
X7776829Y5944346D1*
X7775878Y5947220D1*
Y5955820D1*
X7795974D1*
X7785451Y5949121D2*
X7795974Y5942423D1*
X7775878Y5936247D2*
X7795974D1*
Y5929548D1*
X7795001Y5926674D1*
X7793100Y5924751D1*
X7791177Y5923800D1*
X7788325Y5922849D1*
X7783527D1*
X7780653Y5923800D1*
X7778752Y5924751D1*
X7776829Y5926674D1*
X7775878Y5929548D1*
Y5936247D1*
Y5884809D2*
Y5897233D1*
X7795974D1*
Y5884809D1*
X7785451Y5897233D2*
Y5889584D1*
X7775878Y5878633D2*
X7795974D1*
Y5871934D1*
X7795001Y5869060D1*
X7793100Y5867137D1*
X7791177Y5866186D1*
X7788325Y5865236D1*
X7783527D1*
X7780653Y5866186D1*
X7778752Y5867137D1*
X7776829Y5869060D1*
X7775878Y5871934D1*
Y5878633D1*
X7780653Y5844712D2*
X7778752Y5845663D1*
X7776829Y5847586D1*
X7775878Y5849487D1*
Y5853312D1*
X7776829Y5855235D1*
X7778752Y5857137D1*
X7780653Y5858109D1*
X7783527Y5859060D1*
X7788325D1*
X7791177Y5858109D1*
X7793100Y5857137D1*
X7795001Y5855235D1*
X7795974Y5853312D1*
Y5849487D1*
X7795001Y5847586D1*
X7793100Y5845663D1*
X7791177Y5844712D1*
X7788325D1*
Y5849487D1*
X7775878Y5826112D2*
Y5838536D1*
X7795974D1*
Y5826112D1*
X7785451Y5838536D2*
Y5830887D1*
X3017232Y2020431D2*
X2997136D1*
Y2029053D1*
X2998109Y2031927D1*
X2999060Y2032878D1*
X3000961Y2033828D1*
X3003835D1*
X3005758Y2032878D1*
X3006709Y2031927D1*
X3007660Y2029053D1*
X3008632Y2031927D1*
X3009583Y2032878D1*
X3011484Y2033828D1*
X3013408D1*
X3015309Y2032878D1*
X3016282Y2031927D1*
X3017232Y2029053D1*
Y2020431D1*
X3007660D2*
Y2029053D1*
X3017232Y2045752D2*
X3016282Y2043829D1*
X3014358Y2041927D1*
X3012457Y2040954D1*
X3009583Y2040004D1*
X3004786D1*
X3001934Y2040954D1*
X3000010Y2041927D1*
X2998109Y2043829D1*
X2997136Y2045752D1*
Y2049577D1*
X2998109Y2051478D1*
X3000010Y2053401D1*
X3001934Y2054352D1*
X3004786Y2055302D1*
X3009583D1*
X3012457Y2054352D1*
X3014358Y2053401D1*
X3016282Y2051478D1*
X3017232Y2049577D1*
Y2045752D1*
X2997136Y2076799D2*
X3017232Y2069127D1*
X2997136Y2061478D1*
X3003835Y2064352D2*
Y2073925D1*
X3007660Y2082975D2*
Y2091575D1*
X3008632Y2094449D1*
X3009583Y2095421D1*
X3011484Y2096372D1*
X3013408D1*
X3015309Y2095421D1*
X3016282Y2094449D1*
X3017232Y2091575D1*
Y2082975D1*
X2997136D1*
X3007660Y2089673D2*
X2997136Y2096372D1*
X3017232Y2102548D2*
X2997136D1*
Y2109246D1*
X2998109Y2112120D1*
X3000010Y2114044D1*
X3001934Y2114994D1*
X3004786Y2115945D1*
X3009583D1*
X3012457Y2114994D1*
X3014358Y2114044D1*
X3016282Y2112120D1*
X3017232Y2109246D1*
Y2102548D1*
Y2153986D2*
Y2141561D1*
X2997136D1*
Y2153986D1*
X3007660Y2141561D2*
Y2149210D1*
X3017232Y2160161D2*
X2997136D1*
Y2166860D1*
X2998109Y2169734D1*
X3000010Y2171657D1*
X3001934Y2172608D1*
X3004786Y2173559D1*
X3009583D1*
X3012457Y2172608D1*
X3014358Y2171657D1*
X3016282Y2169734D1*
X3017232Y2166860D1*
Y2160161D1*
X3012457Y2194082D2*
X3014358Y2193132D1*
X3016282Y2191208D1*
X3017232Y2189307D1*
Y2185482D1*
X3016282Y2183559D1*
X3014358Y2181658D1*
X3012457Y2180685D1*
X3009583Y2179734D1*
X3004786D1*
X3001934Y2180685D1*
X3000010Y2181658D1*
X2998109Y2183559D1*
X2997136Y2185482D1*
Y2189307D1*
X2998109Y2191208D1*
X3000010Y2193132D1*
X3001934Y2194082D1*
X3004786D1*
Y2189307D1*
X3017232Y2212682D2*
Y2200258D1*
X2997136D1*
Y2212682D1*
X3007660Y2200258D2*
Y2207907D1*
X4324532Y6470760D2*
Y6490856D1*
X4333154D1*
X4336028Y6489883D1*
X4336979Y6488932D1*
X4337929Y6487031D1*
Y6484157D1*
X4336979Y6482234D1*
X4336028Y6481283D1*
X4333154Y6480333D1*
X4336028Y6479360D1*
X4336979Y6478409D1*
X4337929Y6476508D1*
Y6474585D1*
X4336979Y6472683D1*
X4336028Y6471711D1*
X4333154Y6470760D1*
X4324532D1*
Y6480333D2*
X4333154D1*
X4349853Y6470760D2*
X4347930Y6471711D1*
X4346028Y6473634D1*
X4345056Y6475535D1*
X4344105Y6478409D1*
Y6483207D1*
X4345056Y6486058D1*
X4346028Y6487982D1*
X4347930Y6489883D1*
X4349853Y6490856D1*
X4353678D1*
X4355579Y6489883D1*
X4357502Y6487982D1*
X4358453Y6486058D1*
X4359403Y6483207D1*
Y6478409D1*
X4358453Y6475535D1*
X4357502Y6473634D1*
X4355579Y6471711D1*
X4353678Y6470760D1*
X4349853D1*
X4380900Y6490856D2*
X4373228Y6470760D1*
X4365579Y6490856D1*
X4368453Y6484157D2*
X4378026D1*
X4387076Y6480333D2*
X4395676D1*
X4398550Y6479360D1*
X4399522Y6478409D1*
X4400473Y6476508D1*
Y6474585D1*
X4399522Y6472683D1*
X4398550Y6471711D1*
X4395676Y6470760D1*
X4387076D1*
Y6490856D1*
X4393774Y6480333D2*
X4400473Y6490856D1*
X4406649Y6470760D2*
Y6490856D1*
X4413347D1*
X4416221Y6489883D1*
X4418145Y6487982D1*
X4419095Y6486058D1*
X4420046Y6483207D1*
Y6478409D1*
X4419095Y6475535D1*
X4418145Y6473634D1*
X4416221Y6471711D1*
X4413347Y6470760D1*
X4406649D1*
X4458087D2*
X4445662D1*
Y6490856D1*
X4458087D1*
X4445662Y6480333D2*
X4453311D1*
X4464262Y6470760D2*
Y6490856D1*
X4470961D1*
X4473835Y6489883D1*
X4475758Y6487982D1*
X4476709Y6486058D1*
X4477660Y6483207D1*
Y6478409D1*
X4476709Y6475535D1*
X4475758Y6473634D1*
X4473835Y6471711D1*
X4470961Y6470760D1*
X4464262D1*
X4498183Y6475535D2*
X4497233Y6473634D1*
X4495309Y6471711D1*
X4493408Y6470760D1*
X4489583D1*
X4487660Y6471711D1*
X4485759Y6473634D1*
X4484786Y6475535D1*
X4483835Y6478409D1*
Y6483207D1*
X4484786Y6486059D1*
X4485759Y6487982D1*
X4487660Y6489883D1*
X4489583Y6490856D1*
X4493408D1*
X4495309Y6489883D1*
X4497233Y6487982D1*
X4498183Y6486059D1*
Y6483207D1*
X4493408D1*
X4516784Y6470760D2*
X4504359D1*
Y6490856D1*
X4516784D1*
X4504359Y6480333D2*
X4512008D1*
X1930799Y2217364D2*
X1950895D1*
Y2208742D1*
X1949922Y2205868D1*
X1948972Y2204918D1*
X1947071Y2203967D1*
X1944197D1*
X1942273Y2204918D1*
X1941323Y2205868D1*
X1940372Y2208742D1*
X1939399Y2205868D1*
X1938449Y2204918D1*
X1936547Y2203967D1*
X1934624D1*
X1932723Y2204918D1*
X1931750Y2205868D1*
X1930799Y2208742D1*
Y2217364D1*
X1940372D2*
Y2208742D1*
X1930799Y2192043D2*
X1931750Y2193967D1*
X1933673Y2195868D1*
X1935575Y2196841D1*
X1938449Y2197791D1*
X1943246D1*
X1946098Y2196841D1*
X1948021Y2195868D1*
X1949922Y2193967D1*
X1950895Y2192043D1*
Y2188219D1*
X1949922Y2186317D1*
X1948021Y2184394D1*
X1946098Y2183443D1*
X1943246Y2182493D1*
X1938449D1*
X1935575Y2183443D1*
X1933673Y2184394D1*
X1931750Y2186317D1*
X1930799Y2188219D1*
Y2192043D1*
X1950895Y2160996D2*
X1930799Y2168668D1*
X1950895Y2176317D1*
X1944197Y2173443D2*
Y2163870D1*
X1940372Y2154821D2*
Y2146221D1*
X1939399Y2143347D1*
X1938449Y2142374D1*
X1936547Y2141423D1*
X1934624D1*
X1932723Y2142374D1*
X1931750Y2143347D1*
X1930799Y2146221D1*
Y2154821D1*
X1950895D1*
X1940372Y2148122D2*
X1950895Y2141423D1*
X1930799Y2135248D2*
X1950895D1*
Y2128549D1*
X1949922Y2125675D1*
X1948021Y2123752D1*
X1946098Y2122801D1*
X1943246Y2121850D1*
X1938449D1*
X1935575Y2122801D1*
X1933673Y2123752D1*
X1931750Y2125675D1*
X1930799Y2128549D1*
Y2135248D1*
Y2083810D2*
Y2096234D1*
X1950895D1*
Y2083810D1*
X1940372Y2096234D2*
Y2088585D1*
X1930799Y2077634D2*
X1950895D1*
Y2070935D1*
X1949923Y2068061D1*
X1948021Y2066138D1*
X1946098Y2065187D1*
X1943246Y2064237D1*
X1938449D1*
X1935575Y2065187D1*
X1933673Y2066138D1*
X1931750Y2068061D1*
X1930799Y2070935D1*
Y2077634D1*
X1935575Y2043713D2*
X1933673Y2044664D1*
X1931750Y2046587D1*
X1930799Y2048488D1*
Y2052313D1*
X1931750Y2054236D1*
X1933673Y2056138D1*
X1935575Y2057110D1*
X1938449Y2058061D1*
X1943246D1*
X1946098Y2057110D1*
X1948021Y2056138D1*
X1949923Y2054236D1*
X1950895Y2052313D1*
Y2048488D1*
X1949923Y2046587D1*
X1948021Y2044664D1*
X1946098Y2043713D1*
X1943246D1*
Y2048488D1*
X1930799Y2025113D2*
Y2037537D1*
X1950895D1*
Y2025113D1*
X1940372Y2037537D2*
Y2029888D1*
X6767232Y1270431D2*
X6747136D1*
Y1279053D1*
X6748109Y1281927D1*
X6749060Y1282878D1*
X6750961Y1283828D1*
X6753835D1*
X6755758Y1282878D1*
X6756709Y1281927D1*
X6757660Y1279053D1*
X6758632Y1281927D1*
X6759583Y1282878D1*
X6761484Y1283828D1*
X6763408D1*
X6765309Y1282878D1*
X6766282Y1281927D1*
X6767232Y1279053D1*
Y1270431D1*
X6757660D2*
Y1279053D1*
X6767232Y1295752D2*
X6766282Y1293829D1*
X6764358Y1291927D1*
X6762457Y1290954D1*
X6759583Y1290004D1*
X6754786D1*
X6751934Y1290954D1*
X6750010Y1291927D1*
X6748109Y1293829D1*
X6747136Y1295752D1*
Y1299577D1*
X6748109Y1301478D1*
X6750010Y1303401D1*
X6751934Y1304352D1*
X6754786Y1305302D1*
X6759583D1*
X6762457Y1304352D1*
X6764358Y1303401D1*
X6766282Y1301478D1*
X6767232Y1299577D1*
Y1295752D1*
X6747136Y1326799D2*
X6767232Y1319127D1*
X6747136Y1311478D1*
X6753835Y1314352D2*
Y1323925D1*
X6757660Y1332975D2*
Y1341575D1*
X6758632Y1344449D1*
X6759583Y1345421D1*
X6761484Y1346372D1*
X6763408D1*
X6765309Y1345421D1*
X6766282Y1344449D1*
X6767232Y1341575D1*
Y1332975D1*
X6747136D1*
X6757660Y1339673D2*
X6747136Y1346372D1*
X6767232Y1352548D2*
X6747136D1*
Y1359246D1*
X6748109Y1362120D1*
X6750010Y1364044D1*
X6751934Y1364994D1*
X6754786Y1365945D1*
X6759583D1*
X6762457Y1364994D1*
X6764358Y1364044D1*
X6766282Y1362120D1*
X6767232Y1359246D1*
Y1352548D1*
Y1403986D2*
Y1391561D1*
X6747136D1*
Y1403986D1*
X6757660Y1391561D2*
Y1399210D1*
X6767232Y1410161D2*
X6747136D1*
Y1416860D1*
X6748109Y1419734D1*
X6750010Y1421657D1*
X6751934Y1422608D1*
X6754786Y1423559D1*
X6759583D1*
X6762457Y1422608D1*
X6764358Y1421657D1*
X6766282Y1419734D1*
X6767232Y1416860D1*
Y1410161D1*
X6762457Y1444082D2*
X6764358Y1443132D1*
X6766282Y1441208D1*
X6767232Y1439307D1*
Y1435482D1*
X6766282Y1433559D1*
X6764358Y1431658D1*
X6762457Y1430685D1*
X6759583Y1429734D1*
X6754786D1*
X6751934Y1430685D1*
X6750010Y1431658D1*
X6748109Y1433559D1*
X6747136Y1435482D1*
Y1439307D1*
X6748109Y1441208D1*
X6750010Y1443132D1*
X6751934Y1444082D1*
X6754786D1*
Y1439307D1*
X6767232Y1462682D2*
Y1450258D1*
X6747136D1*
Y1462682D1*
X6757660Y1450258D2*
Y1457907D1*
M02*
