G04 DipTrace 3.3.1.3*
G04 TopAssy.gbr*
%MOIN*%
G04 #@! TF.FileFunction,Drawing,Top*
G04 #@! TF.Part,Single*
%ADD10C,0.009843*%
%ADD15C,0.001312*%
%ADD97C,0.003088*%
%FSLAX26Y26*%
G04*
G70*
G90*
G75*
G01*
G04 TopAssy*
%LPD*%
X8033855Y4198031D2*
D10*
Y3539764D1*
X12789171Y4004528D2*
Y4283268D1*
X3334646Y6828743D2*
X3613386D1*
X761792Y1592910D2*
G02X761792Y1561454I43J-15728D01*
G01*
X761848Y1100796D2*
G02X761848Y1069340I-13J-15728D01*
G01*
X761624Y1592910D2*
X395690D1*
X761624Y1069255D2*
X395690D1*
X761792Y1561454D2*
Y1100796D1*
X395690Y1067321D2*
Y933506D1*
Y1728744D2*
Y1594929D1*
X4035039Y5828737D2*
X4812992D1*
X12789177Y4654921D2*
Y5432874D1*
X9359843Y501160D2*
X9714173D1*
X10024016Y2473622D2*
D15*
X13193307D1*
X12268110Y768898D2*
Y2985433D1*
X8072154Y3968332D2*
D97*
X8052058D1*
X8052057Y3959710D1*
X8053030Y3956836D1*
X8053981Y3955885D1*
X8055882Y3954935D1*
X8058756D1*
X8060680Y3955885D1*
X8061630Y3956836D1*
X8062581Y3959710D1*
X8063554Y3956836D1*
X8064504Y3955885D1*
X8066405Y3954935D1*
X8068329D1*
X8070230Y3955885D1*
X8071203Y3956836D1*
X8072153Y3959710D1*
X8072154Y3968332D1*
X8062581D2*
Y3959710D1*
X8072153Y3943011D2*
X8071203Y3944934D1*
X8069279Y3946835D1*
X8067378Y3947808D1*
X8064504Y3948759D1*
X8059707D1*
X8056855Y3947808D1*
X8054931Y3946836D1*
X8053030Y3944934D1*
X8052057Y3943011D1*
Y3939186D1*
X8053030Y3937285D1*
X8054932Y3935362D1*
X8056855Y3934411D1*
X8059707Y3933460D1*
X8064504D1*
X8067378Y3934411D1*
X8069279Y3935362D1*
X8071203Y3937285D1*
X8072153Y3939186D1*
Y3943011D1*
X8052058Y3911964D2*
X8072153Y3919635D1*
X8052058Y3927285D1*
X8058756Y3924411D2*
Y3914838D1*
X8062581Y3905788D2*
Y3897188D1*
X8063554Y3894314D1*
X8064504Y3893342D1*
X8066405Y3892391D1*
X8068329D1*
X8070230Y3893342D1*
X8071203Y3894314D1*
X8072153Y3897188D1*
Y3905788D1*
X8052058D1*
X8062581Y3899090D2*
X8052058Y3892391D1*
X8072153Y3886215D2*
X8052058D1*
Y3879517D1*
X8053030Y3876643D1*
X8054932Y3874719D1*
X8056855Y3873768D1*
X8059707Y3872818D1*
X8064504D1*
X8067378Y3873768D1*
X8069279Y3874719D1*
X8071203Y3876643D1*
X8072153Y3879517D1*
Y3886215D1*
X8072154Y3834777D2*
Y3847202D1*
X8052058D1*
Y3834777D1*
X8062581Y3847202D2*
Y3839552D1*
X8072154Y3828601D2*
X8052058D1*
Y3821903D1*
X8053030Y3819029D1*
X8054932Y3817105D1*
X8056855Y3816155D1*
X8059707Y3815204D1*
X8064504D1*
X8067378Y3816155D1*
X8069279Y3817105D1*
X8071203Y3819029D1*
X8072154Y3821903D1*
Y3828601D1*
X8067378Y3794680D2*
X8069279Y3795631D1*
X8071203Y3797554D1*
X8072154Y3799456D1*
Y3803280D1*
X8071203Y3805204D1*
X8069279Y3807105D1*
X8067378Y3808078D1*
X8064504Y3809028D1*
X8059707D1*
X8056855Y3808078D1*
X8054932Y3807105D1*
X8053030Y3805204D1*
X8052058Y3803280D1*
Y3799456D1*
X8053030Y3797554D1*
X8054932Y3795631D1*
X8056855Y3794680D1*
X8059707D1*
Y3799456D1*
X8072154Y3776080D2*
Y3788505D1*
X8052058D1*
Y3776080D1*
X8062581Y3788505D2*
Y3780855D1*
X12755799Y4045430D2*
X12775895D1*
Y4054052D1*
X12774923Y4056926D1*
X12773972Y4057876D1*
X12772071Y4058827D1*
X12769197D1*
X12767273Y4057876D1*
X12766323Y4056926D1*
X12765372Y4054052D1*
X12764399Y4056926D1*
X12763449Y4057876D1*
X12761547Y4058827D1*
X12759624D1*
X12757723Y4057876D1*
X12756750Y4056926D1*
X12755799Y4054052D1*
Y4045430D1*
X12765372D2*
Y4054052D1*
X12755799Y4070751D2*
X12756750Y4068827D1*
X12758673Y4066926D1*
X12760575Y4065953D1*
X12763449Y4065003D1*
X12768246D1*
X12771098Y4065953D1*
X12773021Y4066926D1*
X12774923Y4068827D1*
X12775895Y4070751D1*
Y4074575D1*
X12774923Y4076477D1*
X12773021Y4078400D1*
X12771098Y4079351D1*
X12768246Y4080301D1*
X12763449D1*
X12760575Y4079351D1*
X12758673Y4078400D1*
X12756750Y4076477D1*
X12755799Y4074575D1*
Y4070751D1*
X12775895Y4101798D2*
X12755799Y4094126D1*
X12775895Y4086477D1*
X12769197Y4089351D2*
Y4098924D1*
X12765372Y4107973D2*
Y4116573D1*
X12764399Y4119447D1*
X12763449Y4120420D1*
X12761547Y4121371D1*
X12759624D1*
X12757723Y4120420D1*
X12756750Y4119447D1*
X12755799Y4116573D1*
Y4107973D1*
X12775895D1*
X12765372Y4114672D2*
X12775895Y4121371D1*
X12755799Y4127546D2*
X12775895D1*
Y4134245D1*
X12774922Y4137119D1*
X12773021Y4139042D1*
X12771098Y4139993D1*
X12768246Y4140944D1*
X12763449D1*
X12760575Y4139993D1*
X12758673Y4139042D1*
X12756750Y4137119D1*
X12755799Y4134245D1*
Y4127546D1*
Y4178984D2*
Y4166560D1*
X12775895D1*
Y4178984D1*
X12765372Y4166560D2*
Y4174209D1*
X12755799Y4185160D2*
X12775895D1*
Y4191859D1*
X12774922Y4194733D1*
X12773021Y4196656D1*
X12771098Y4197607D1*
X12768246Y4198557D1*
X12763449D1*
X12760575Y4197607D1*
X12758673Y4196656D1*
X12756750Y4194733D1*
X12755799Y4191859D1*
Y4185160D1*
X12760575Y4219081D2*
X12758673Y4218130D1*
X12756750Y4216207D1*
X12755799Y4214306D1*
Y4210481D1*
X12756750Y4208558D1*
X12758673Y4206657D1*
X12760575Y4205684D1*
X12763449Y4204733D1*
X12768246D1*
X12771098Y4205684D1*
X12773021Y4206657D1*
X12774922Y4208558D1*
X12775895Y4210481D1*
Y4214306D1*
X12774922Y4216207D1*
X12773021Y4218130D1*
X12771098Y4219081D1*
X12768246D1*
Y4214306D1*
X12755799Y4237681D2*
Y4225257D1*
X12775895D1*
Y4237681D1*
X12765372Y4225257D2*
Y4232906D1*
X3375548Y6862114D2*
Y6842018D1*
X3384170D1*
X3387044Y6842991D1*
X3387994Y6843942D1*
X3388945Y6845843D1*
Y6848717D1*
X3387994Y6850640D1*
X3387044Y6851591D1*
X3384170Y6852541D1*
X3387044Y6853514D1*
X3387994Y6854465D1*
X3388945Y6856366D1*
Y6858290D1*
X3387994Y6860191D1*
X3387044Y6861164D1*
X3384170Y6862114D1*
X3375548D1*
Y6852541D2*
X3384170D1*
X3400869Y6862114D2*
X3398945Y6861164D1*
X3397044Y6859240D1*
X3396071Y6857339D1*
X3395121Y6854465D1*
Y6849667D1*
X3396071Y6846816D1*
X3397044Y6844892D1*
X3398945Y6842991D1*
X3400869Y6842018D1*
X3404693D1*
X3406595Y6842991D1*
X3408518Y6844892D1*
X3409469Y6846816D1*
X3410419Y6849667D1*
Y6854465D1*
X3409469Y6857339D1*
X3408518Y6859240D1*
X3406595Y6861164D1*
X3404693Y6862114D1*
X3400869D1*
X3431916Y6842018D2*
X3424244Y6862114D1*
X3416595Y6842018D1*
X3419469Y6848717D2*
X3429042D1*
X3438091Y6852541D2*
X3446691D1*
X3449565Y6853514D1*
X3450538Y6854465D1*
X3451489Y6856366D1*
Y6858290D1*
X3450538Y6860191D1*
X3449565Y6861164D1*
X3446691Y6862114D1*
X3438091D1*
Y6842018D1*
X3444790Y6852541D2*
X3451489Y6842018D1*
X3457664Y6862114D2*
Y6842018D1*
X3464363D1*
X3467237Y6842991D1*
X3469161Y6844892D1*
X3470111Y6846816D1*
X3471062Y6849667D1*
Y6854465D1*
X3470111Y6857339D1*
X3469161Y6859240D1*
X3467237Y6861164D1*
X3464363Y6862114D1*
X3457664D1*
X3509103D2*
X3496678D1*
Y6842018D1*
X3509103D1*
X3496678Y6852541D2*
X3504327D1*
X3515278Y6862114D2*
Y6842018D1*
X3521977D1*
X3524851Y6842991D1*
X3526774Y6844892D1*
X3527725Y6846816D1*
X3528676Y6849667D1*
Y6854465D1*
X3527725Y6857339D1*
X3526774Y6859240D1*
X3524851Y6861164D1*
X3521977Y6862114D1*
X3515278D1*
X3549199Y6857339D2*
X3548249Y6859240D1*
X3546325Y6861164D1*
X3544424Y6862114D1*
X3540599D1*
X3538676Y6861164D1*
X3536775Y6859240D1*
X3535802Y6857339D1*
X3534851Y6854465D1*
Y6849667D1*
X3535802Y6846816D1*
X3536775Y6844892D1*
X3538676Y6842991D1*
X3540599Y6842018D1*
X3544424D1*
X3546325Y6842991D1*
X3548249Y6844892D1*
X3549199Y6846816D1*
Y6849667D1*
X3544424D1*
X3567799Y6862114D2*
X3555375D1*
Y6842018D1*
X3567799D1*
X3555375Y6852541D2*
X3563024D1*
X381442Y968740D2*
Y981165D1*
X361346D1*
Y968740D1*
X371869Y981165D2*
Y973515D1*
X381442Y962564D2*
X361346D1*
Y955866D1*
X362319Y952992D1*
X364220Y951068D1*
X366143Y950118D1*
X368995Y949167D1*
X373793D1*
X376667Y950118D1*
X378568Y951068D1*
X380491Y952992D1*
X381442Y955866D1*
Y962564D1*
X376667Y928643D2*
X378568Y929594D1*
X380491Y931517D1*
X381442Y933419D1*
Y937243D1*
X380491Y939167D1*
X378568Y941068D1*
X376667Y942041D1*
X373793Y942991D1*
X368995D1*
X366143Y942041D1*
X364220Y941068D1*
X362319Y939167D1*
X361346Y937243D1*
Y933419D1*
X362319Y931517D1*
X364220Y929594D1*
X366143Y928643D1*
X368995D1*
Y933419D1*
X381442Y910043D2*
Y922468D1*
X361346D1*
Y910043D1*
X371869Y922468D2*
Y914818D1*
X381442Y1098074D2*
X361346D1*
Y1089452D1*
X362319Y1086578D1*
X363269Y1085628D1*
X365170Y1084677D1*
X368045D1*
X369968Y1085628D1*
X370919Y1086578D1*
X371869Y1089452D1*
X372842Y1086578D1*
X373793Y1085628D1*
X375694Y1084677D1*
X377617D1*
X379518Y1085628D1*
X380491Y1086578D1*
X381442Y1089452D1*
Y1098074D1*
X371869D2*
Y1089452D1*
X381442Y1072753D2*
X380491Y1074677D1*
X378568Y1076578D1*
X376667Y1077551D1*
X373793Y1078501D1*
X368995D1*
X366143Y1077551D1*
X364220Y1076578D1*
X362319Y1074677D1*
X361346Y1072753D1*
Y1068929D1*
X362319Y1067027D1*
X364220Y1065104D1*
X366143Y1064153D1*
X368995Y1063203D1*
X373793D1*
X376667Y1064153D1*
X378568Y1065104D1*
X380491Y1067027D1*
X381442Y1068929D1*
Y1072753D1*
X361346Y1041706D2*
X381442Y1049378D1*
X361346Y1057027D1*
X368045Y1054153D2*
Y1044580D1*
X371869Y1035531D2*
Y1026931D1*
X372842Y1024057D1*
X373793Y1023084D1*
X375694Y1022133D1*
X377617D1*
X379518Y1023084D1*
X380491Y1024057D1*
X381442Y1026931D1*
Y1035531D1*
X361346D1*
X371869Y1028832D2*
X361346Y1022133D1*
X381442Y1015958D2*
X361346D1*
Y1009259D1*
X362319Y1006385D1*
X364220Y1004462D1*
X366143Y1003511D1*
X368995Y1002560D1*
X373793D1*
X376667Y1003511D1*
X378568Y1004462D1*
X380491Y1006385D1*
X381442Y1009259D1*
Y1015958D1*
Y1618725D2*
Y1631149D1*
X361346D1*
Y1618725D1*
X371869Y1631149D2*
Y1623500D1*
X381442Y1612549D2*
X361346D1*
Y1605850D1*
X362319Y1602976D1*
X364220Y1601053D1*
X366143Y1600102D1*
X368995Y1599152D1*
X373793D1*
X376667Y1600102D1*
X378568Y1601053D1*
X380491Y1602976D1*
X381442Y1605850D1*
Y1612549D1*
X376667Y1578628D2*
X378568Y1579579D1*
X380491Y1581502D1*
X381442Y1583403D1*
Y1587228D1*
X380491Y1589151D1*
X378568Y1591053D1*
X376667Y1592025D1*
X373793Y1592976D1*
X368995D1*
X366143Y1592025D1*
X364220Y1591053D1*
X362319Y1589151D1*
X361346Y1587228D1*
Y1583403D1*
X362319Y1581502D1*
X364220Y1579579D1*
X366143Y1578628D1*
X368995D1*
Y1583403D1*
X381442Y1560028D2*
Y1572452D1*
X361346D1*
Y1560028D1*
X371869Y1572452D2*
Y1564803D1*
X381442Y1748059D2*
X361346D1*
Y1739437D1*
X362319Y1736563D1*
X363269Y1735612D1*
X365170Y1734662D1*
X368045D1*
X369968Y1735612D1*
X370919Y1736563D1*
X371869Y1739437D1*
X372842Y1736563D1*
X373793Y1735612D1*
X375694Y1734662D1*
X377617D1*
X379518Y1735612D1*
X380491Y1736563D1*
X381442Y1739437D1*
Y1748059D1*
X371869D2*
Y1739437D1*
X381442Y1722738D2*
X380491Y1724661D1*
X378568Y1726563D1*
X376667Y1727535D1*
X373793Y1728486D1*
X368995D1*
X366143Y1727535D1*
X364220Y1726563D1*
X362319Y1724661D1*
X361346Y1722738D1*
Y1718913D1*
X362319Y1717012D1*
X364220Y1715089D1*
X366143Y1714138D1*
X368995Y1713187D1*
X373793D1*
X376667Y1714138D1*
X378568Y1715089D1*
X380491Y1717012D1*
X381442Y1718913D1*
Y1722738D1*
X361346Y1691691D2*
X381442Y1699362D1*
X361346Y1707012D1*
X368045Y1704138D2*
Y1694565D1*
X371869Y1685515D2*
Y1676915D1*
X372842Y1674041D1*
X373793Y1673069D1*
X375694Y1672118D1*
X377617D1*
X379518Y1673069D1*
X380491Y1674041D1*
X381442Y1676915D1*
Y1685515D1*
X361346D1*
X371869Y1678817D2*
X361346Y1672118D1*
X381442Y1665942D2*
X361346D1*
Y1659244D1*
X362319Y1656370D1*
X364220Y1654446D1*
X366143Y1653496D1*
X368995Y1652545D1*
X373793D1*
X376667Y1653496D1*
X378568Y1654446D1*
X380491Y1656370D1*
X381442Y1659244D1*
Y1665942D1*
X4324581Y5867035D2*
Y5846939D1*
X4333203D1*
X4336077Y5847912D1*
X4337028Y5848863D1*
X4337979Y5850764D1*
Y5853638D1*
X4337028Y5855561D1*
X4336077Y5856512D1*
X4333203Y5857463D1*
X4336077Y5858435D1*
X4337028Y5859386D1*
X4337979Y5861287D1*
Y5863211D1*
X4337028Y5865112D1*
X4336077Y5866085D1*
X4333203Y5867035D1*
X4324581D1*
Y5857463D2*
X4333203D1*
X4349902Y5867035D2*
X4347979Y5866085D1*
X4346078Y5864161D1*
X4345105Y5862260D1*
X4344154Y5859386D1*
Y5854589D1*
X4345105Y5851737D1*
X4346078Y5849813D1*
X4347979Y5847912D1*
X4349902Y5846939D1*
X4353727D1*
X4355628Y5847912D1*
X4357552Y5849813D1*
X4358502Y5851737D1*
X4359453Y5854589D1*
Y5859386D1*
X4358502Y5862260D1*
X4357552Y5864161D1*
X4355628Y5866085D1*
X4353727Y5867035D1*
X4349902D1*
X4380949Y5846939D2*
X4373278Y5867035D1*
X4365629Y5846939D1*
X4368503Y5853638D2*
X4378075D1*
X4387125Y5857463D2*
X4395725D1*
X4398599Y5858435D1*
X4399572Y5859386D1*
X4400522Y5861287D1*
Y5863211D1*
X4399572Y5865112D1*
X4398599Y5866085D1*
X4395725Y5867035D1*
X4387125D1*
Y5846939D1*
X4393824Y5857463D2*
X4400522Y5846939D1*
X4406698Y5867035D2*
Y5846939D1*
X4413397D1*
X4416271Y5847912D1*
X4418194Y5849813D1*
X4419145Y5851737D1*
X4420096Y5854589D1*
Y5859386D1*
X4419145Y5862260D1*
X4418194Y5864161D1*
X4416271Y5866085D1*
X4413397Y5867035D1*
X4406698D1*
X4458136D2*
X4445712D1*
Y5846939D1*
X4458136D1*
X4445712Y5857463D2*
X4453361D1*
X4464312Y5867035D2*
Y5846939D1*
X4471011D1*
X4473885Y5847912D1*
X4475808Y5849813D1*
X4476759Y5851737D1*
X4477709Y5854589D1*
Y5859386D1*
X4476759Y5862260D1*
X4475808Y5864161D1*
X4473885Y5866085D1*
X4471011Y5867035D1*
X4464312D1*
X4498233Y5862260D2*
X4497282Y5864161D1*
X4495359Y5866085D1*
X4493458Y5867035D1*
X4489633D1*
X4487710Y5866085D1*
X4485808Y5864161D1*
X4484836Y5862260D1*
X4483885Y5859386D1*
Y5854589D1*
X4484836Y5851737D1*
X4485808Y5849813D1*
X4487710Y5847912D1*
X4489633Y5846939D1*
X4493458D1*
X4495359Y5847912D1*
X4497282Y5849813D1*
X4498233Y5851737D1*
Y5854589D1*
X4493458D1*
X4516833Y5867035D2*
X4504409D1*
Y5846939D1*
X4516833D1*
X4504409Y5857463D2*
X4512058D1*
X12750878Y4944463D2*
X12770974D1*
Y4953085D1*
X12770001Y4955959D1*
X12769051Y4956910D1*
X12767149Y4957861D1*
X12764275D1*
X12762352Y4956910D1*
X12761401Y4955959D1*
X12760451Y4953085D1*
X12759478Y4955959D1*
X12758527Y4956910D1*
X12756626Y4957861D1*
X12754703D1*
X12752801Y4956910D1*
X12751829Y4955959D1*
X12750878Y4953085D1*
Y4944463D1*
X12760451D2*
Y4953085D1*
X12750878Y4969784D2*
X12751829Y4967861D1*
X12753752Y4965960D1*
X12755653Y4964987D1*
X12758527Y4964036D1*
X12763325D1*
X12766177Y4964987D1*
X12768100Y4965960D1*
X12770001Y4967861D1*
X12770974Y4969784D1*
Y4973609D1*
X12770001Y4975510D1*
X12768100Y4977434D1*
X12766177Y4978384D1*
X12763325Y4979335D1*
X12758527D1*
X12755653Y4978384D1*
X12753752Y4977434D1*
X12751829Y4975510D1*
X12750878Y4973609D1*
Y4969784D1*
X12770974Y5000831D2*
X12750878Y4993160D1*
X12770974Y4985511D1*
X12764275Y4988385D2*
Y4997957D1*
X12760451Y5007007D2*
Y5015607D1*
X12759478Y5018481D1*
X12758527Y5019454D1*
X12756626Y5020404D1*
X12754703D1*
X12752801Y5019454D1*
X12751829Y5018481D1*
X12750878Y5015607D1*
Y5007007D1*
X12770974D1*
X12760451Y5013706D2*
X12770974Y5020404D1*
X12750878Y5026580D2*
X12770974D1*
Y5033279D1*
X12770001Y5036153D1*
X12768100Y5038076D1*
X12766177Y5039027D1*
X12763325Y5039977D1*
X12758527D1*
X12755653Y5039027D1*
X12753752Y5038076D1*
X12751829Y5036153D1*
X12750878Y5033279D1*
Y5026580D1*
Y5078018D2*
Y5065594D1*
X12770974D1*
Y5078018D1*
X12760451Y5065594D2*
Y5073243D1*
X12750878Y5084194D2*
X12770974D1*
Y5090892D1*
X12770001Y5093766D1*
X12768100Y5095690D1*
X12766177Y5096640D1*
X12763325Y5097591D1*
X12758527D1*
X12755653Y5096640D1*
X12753752Y5095690D1*
X12751829Y5093766D1*
X12750878Y5090892D1*
Y5084194D1*
X12755653Y5118115D2*
X12753752Y5117164D1*
X12751829Y5115241D1*
X12750878Y5113340D1*
Y5109515D1*
X12751829Y5107591D1*
X12753752Y5105690D1*
X12755653Y5104717D1*
X12758527Y5103767D1*
X12763325D1*
X12766177Y5104717D1*
X12768100Y5105690D1*
X12770001Y5107591D1*
X12770974Y5109515D1*
Y5113340D1*
X12770001Y5115241D1*
X12768100Y5117164D1*
X12766177Y5118115D1*
X12763325D1*
Y5113340D1*
X12750878Y5136715D2*
Y5124290D1*
X12770974D1*
Y5136715D1*
X12760451Y5124290D2*
Y5131940D1*
X9562280Y485138D2*
X9549855D1*
Y465042D1*
X9562280D1*
X9549855Y475565D2*
X9557504D1*
X9568455Y485138D2*
Y465042D1*
X9575154D1*
X9578028Y466015D1*
X9579951Y467916D1*
X9580902Y469840D1*
X9581853Y472691D1*
Y477489D1*
X9580902Y480363D1*
X9579951Y482264D1*
X9578028Y484188D1*
X9575154Y485138D1*
X9568455D1*
X9602376Y480363D2*
X9601426Y482264D1*
X9599502Y484188D1*
X9597601Y485138D1*
X9593776D1*
X9591853Y484188D1*
X9589952Y482264D1*
X9588979Y480363D1*
X9588028Y477489D1*
Y472691D1*
X9588979Y469840D1*
X9589952Y467916D1*
X9591853Y466015D1*
X9593776Y465042D1*
X9597601D1*
X9599502Y466015D1*
X9601426Y467916D1*
X9602376Y469840D1*
Y472691D1*
X9597601D1*
X9620977Y485138D2*
X9608552D1*
Y465042D1*
X9620977D1*
X9608552Y475565D2*
X9616201D1*
X9430942Y485550D2*
Y465454D1*
X9439564D1*
X9442438Y466426D1*
X9443388Y467377D1*
X9444339Y469278D1*
Y472152D1*
X9443388Y474076D1*
X9442438Y475026D1*
X9439564Y475977D1*
X9442438Y476950D1*
X9443388Y477900D1*
X9444339Y479802D1*
Y481725D1*
X9443388Y483626D1*
X9442438Y484599D1*
X9439564Y485550D1*
X9430942D1*
Y475977D2*
X9439564D1*
X9456263Y485550D2*
X9454339Y484599D1*
X9452438Y482676D1*
X9451465Y480774D1*
X9450515Y477900D1*
Y473103D1*
X9451465Y470251D1*
X9452438Y468328D1*
X9454339Y466426D1*
X9456263Y465454D1*
X9460087D1*
X9461989Y466426D1*
X9463912Y468328D1*
X9464863Y470251D1*
X9465813Y473103D1*
Y477900D1*
X9464863Y480774D1*
X9463912Y482676D1*
X9461989Y484599D1*
X9460087Y485550D1*
X9456263D1*
X9487310Y465454D2*
X9479638Y485550D1*
X9471989Y465454D1*
X9474863Y472152D2*
X9484436D1*
X9493485Y475977D2*
X9502085D1*
X9504959Y476950D1*
X9505932Y477900D1*
X9506883Y479802D1*
Y481725D1*
X9505932Y483626D1*
X9504959Y484599D1*
X9502085Y485550D1*
X9493485D1*
Y465454D1*
X9500184Y475977D2*
X9506883Y465454D1*
X9513058Y485550D2*
Y465454D1*
X9519757D1*
X9522631Y466426D1*
X9524554Y468328D1*
X9525505Y470251D1*
X9526456Y473103D1*
Y477900D1*
X9525505Y480774D1*
X9524554Y482676D1*
X9522631Y484599D1*
X9519757Y485550D1*
X9513058D1*
M02*
