G04 DipTrace 3.3.1.3*
G04 BottomMask.gbr*
%MOIN*%
G04 #@! TF.FileFunction,Soldermask,Bot*
G04 #@! TF.Part,Single*
%AMOUTLINE1*
4,1,8,
-0.01067,0.025761,
0.01067,0.025761,
0.025761,0.01067,
0.025761,-0.01067,
0.01067,-0.025761,
-0.01067,-0.025761,
-0.025761,-0.01067,
-0.025761,0.01067,
-0.01067,0.025761,
0*%
%ADD18R,0.066929X0.066929*%
%ADD19C,0.066929*%
%ADD33R,0.074803X0.074803*%
%ADD34C,0.074803*%
%ADD37C,0.098425*%
%ADD42C,0.106299*%
%ADD43C,0.1*%
%ADD58O,0.074803X0.114173*%
%ADD60C,0.055118*%
%ADD62C,0.106299*%
%ADD63C,0.129921*%
%ADD65R,0.129921X0.129921*%
%ADD67C,0.082677*%
%ADD68R,0.082677X0.082677*%
%ADD71O,0.125984X0.070866*%
%ADD73R,0.070866X0.070866*%
%ADD75C,0.070866*%
%ADD78C,0.195276*%
%ADD80C,0.074409*%
%ADD82R,0.074409X0.074409*%
%ADD84R,0.098425X0.098425*%
%ADD85R,0.057874X0.057874*%
%ADD87C,0.057874*%
%ADD89C,0.077874*%
%ADD91C,0.077874*%
%ADD99OUTLINE1*%
%FSLAX26Y26*%
G04*
G70*
G90*
G75*
G01*
G04 BotMask*
%LPD*%
D91*
X3774016Y1700787D3*
D89*
Y2300787D3*
D91*
X13149016Y3425787D3*
D89*
X12549016D3*
D33*
X7974016Y4000787D3*
D34*
Y3900787D3*
Y3800787D3*
Y3700787D3*
Y3600787D3*
Y3500787D3*
D33*
X7874016Y6050787D3*
D34*
Y5950787D3*
Y5850787D3*
Y5750787D3*
Y5650787D3*
Y5550787D3*
D87*
X1659055Y3265748D3*
D85*
X1559055D3*
D87*
X3774016Y800787D3*
D85*
X3674016D3*
D87*
X5374016D3*
D85*
X5274016D3*
D87*
X4824016D3*
D85*
X4724016D3*
D87*
X4324016D3*
D85*
X4224016D3*
D87*
X7355512D3*
D85*
X7255512D3*
D87*
X8674016D3*
D85*
X8574016D3*
D87*
X2224016Y6550787D3*
D85*
X2124016D3*
D87*
X1674016D3*
D85*
X1574016D3*
D87*
X2924016D3*
D85*
X2824016D3*
D87*
X12124016Y5400787D3*
D85*
X12024016D3*
D87*
X12124016Y4950787D3*
D85*
X12024016D3*
D87*
X12124016Y4450787D3*
D85*
X12024016D3*
D87*
X12124016Y3950787D3*
D85*
X12024016D3*
D87*
X12124016Y3450787D3*
D85*
X12024016D3*
D87*
X5474016Y6550787D3*
D85*
X5374016D3*
D87*
X6074016D3*
D85*
X5974016D3*
D87*
X6574016D3*
D85*
X6474016D3*
D87*
X7074016D3*
D85*
X6974016D3*
D33*
X2924016Y1900787D3*
D34*
Y2000787D3*
Y2100787D3*
D33*
X4024016Y6450787D3*
D34*
X4124016D3*
X4224016D3*
X4324016D3*
X4424016D3*
X4524016D3*
X4624016D3*
X4724016D3*
X4824016D3*
D33*
X12849016Y3975787D3*
D34*
Y4075787D3*
D42*
X3393307Y4550787D3*
D43*
X5224016D3*
Y2798031D3*
X3393307D3*
X9010236Y6600787D3*
Y5459055D3*
X9774016D3*
Y6600787D3*
D42*
X574016Y6800787D3*
X13324016D3*
D43*
Y550787D3*
X574016D3*
X9824016Y1350787D3*
D33*
X3124016Y6050787D3*
D34*
Y6150787D3*
X3024016Y6050787D3*
Y6150787D3*
X2924016Y6050787D3*
Y6150787D3*
X2824016Y6050787D3*
Y6150787D3*
X2724016Y6050787D3*
Y6150787D3*
X2624016Y6050787D3*
Y6150787D3*
X2524016Y6050787D3*
Y6150787D3*
X2424016Y6050787D3*
Y6150787D3*
X2324016Y6050787D3*
Y6150787D3*
X2224016Y6050787D3*
Y6150787D3*
X2124016Y6050787D3*
Y6150787D3*
X2024016Y6050787D3*
Y6150787D3*
X1924016Y6050787D3*
Y6150787D3*
X1824016Y6050787D3*
Y6150787D3*
X1724016Y6050787D3*
Y6150787D3*
X1624016Y6050787D3*
Y6150787D3*
X1524016Y6050787D3*
Y6150787D3*
D33*
X6974016Y6050787D3*
D34*
Y6150787D3*
X6874016Y6050787D3*
Y6150787D3*
X6774016Y6050787D3*
Y6150787D3*
X6674016Y6050787D3*
Y6150787D3*
X6574016Y6050787D3*
Y6150787D3*
X6474016Y6050787D3*
Y6150787D3*
X6374016Y6050787D3*
Y6150787D3*
X6274016Y6050787D3*
Y6150787D3*
X6174016Y6050787D3*
Y6150787D3*
X6074016Y6050787D3*
Y6150787D3*
X5974016Y6050787D3*
Y6150787D3*
X5874016Y6050787D3*
Y6150787D3*
X5774016Y6050787D3*
Y6150787D3*
X5674016Y6050787D3*
Y6150787D3*
X5574016Y6050787D3*
Y6150787D3*
X5474016Y6050787D3*
Y6150787D3*
X5374016Y6050787D3*
Y6150787D3*
D33*
X11474016Y3600787D3*
D34*
X11574016D3*
X11474016Y3700787D3*
X11574016D3*
X11474016Y3800787D3*
X11574016D3*
X11474016Y3900787D3*
X11574016D3*
X11474016Y4000787D3*
X11574016D3*
X11474016Y4100787D3*
X11574016D3*
X11474016Y4200787D3*
X11574016D3*
X11474016Y4300787D3*
X11574016D3*
X11474016Y4400787D3*
X11574016D3*
X11474016Y4500787D3*
X11574016D3*
X11474016Y4600787D3*
X11574016D3*
X11474016Y4700787D3*
X11574016D3*
X11474016Y4800787D3*
X11574016D3*
X11474016Y4900787D3*
X11574016D3*
X11474016Y5000787D3*
X11574016D3*
X11474016Y5100787D3*
X11574016D3*
X11474016Y5200787D3*
X11574016D3*
D33*
X7224016Y1350787D3*
D34*
Y1250787D3*
X7324016Y1350787D3*
Y1250787D3*
X7424016Y1350787D3*
Y1250787D3*
X7524016Y1350787D3*
Y1250787D3*
X7624016Y1350787D3*
Y1250787D3*
X7724016Y1350787D3*
Y1250787D3*
X7824016Y1350787D3*
Y1250787D3*
X7924016Y1350787D3*
Y1250787D3*
X8024016Y1350787D3*
Y1250787D3*
X8124016Y1350787D3*
Y1250787D3*
X8224016Y1350787D3*
Y1250787D3*
X8324016Y1350787D3*
Y1250787D3*
X8424016Y1350787D3*
Y1250787D3*
X8524016Y1350787D3*
Y1250787D3*
X8624016Y1350787D3*
Y1250787D3*
X8724016Y1350787D3*
Y1250787D3*
X8824016Y1350787D3*
Y1250787D3*
D33*
X3674016Y1350787D3*
D34*
Y1250787D3*
X3774016Y1350787D3*
Y1250787D3*
X3874016Y1350787D3*
Y1250787D3*
X3974016Y1350787D3*
Y1250787D3*
X4074016Y1350787D3*
Y1250787D3*
X4174016Y1350787D3*
Y1250787D3*
X4274016Y1350787D3*
Y1250787D3*
X4374016Y1350787D3*
Y1250787D3*
X4474016Y1350787D3*
Y1250787D3*
X4574016Y1350787D3*
Y1250787D3*
X4674016Y1350787D3*
Y1250787D3*
X4774016Y1350787D3*
Y1250787D3*
X4874016Y1350787D3*
Y1250787D3*
X4974016Y1350787D3*
Y1250787D3*
X5074016Y1350787D3*
Y1250787D3*
X5174016Y1350787D3*
Y1250787D3*
X5274016Y1350787D3*
Y1250787D3*
D84*
X7724016Y6550787D3*
D37*
X7874016D3*
D82*
X824016Y4250787D3*
D80*
Y4359843D3*
Y4468898D3*
Y4577953D3*
Y4687008D3*
X712205Y4305315D3*
Y4414370D3*
Y4523425D3*
Y4632480D3*
D78*
X768111Y3976969D3*
Y4960827D3*
D33*
X3424016Y6650787D3*
D34*
X3524016D3*
D84*
X1024016Y6750787D3*
D37*
X1174016D3*
D84*
X6224016Y800787D3*
D37*
X6374016D3*
D18*
X11024016Y1200787D3*
D19*
X11102756D3*
X11181496D3*
X11260236D3*
X11338976D3*
X11417717D3*
X11496457D3*
X11575197D3*
X11653937D3*
X11732677D3*
X11811417D3*
X11890157D3*
X11968898D3*
X12047638D3*
X12126378D3*
X12205118D3*
X12283858D3*
X12362598D3*
X12441339D3*
X12520079D3*
X12598819D3*
Y1279528D3*
X12520079D3*
X12441339D3*
X12362598D3*
X12283858D3*
X12205118D3*
X12126378D3*
X12047638D3*
X11968898D3*
X11890157D3*
X11811417D3*
X11732677D3*
X11653937D3*
X11575197D3*
X11496457D3*
X11417717D3*
X11338976D3*
X11260236D3*
X11181496D3*
X11102756D3*
X11024016D3*
D84*
X13224016Y5750787D3*
D37*
Y5900787D3*
D75*
X924016Y1350787D3*
Y1252362D3*
Y1173622D3*
D73*
Y1075197D3*
D71*
X890551Y1522047D3*
Y903937D3*
D84*
X1824016Y800787D3*
D37*
X1974016D3*
D33*
X4124016Y5650787D3*
D34*
X4224016D3*
X4324016D3*
X4424016D3*
X4524016D3*
X4624016D3*
X4724016D3*
D91*
X1724016Y1450787D3*
D89*
X2324016D3*
D91*
X3224016D3*
D89*
X2624016D3*
D91*
X7324016Y2300787D3*
D89*
Y1700787D3*
D91*
X3124016Y5100787D3*
D89*
Y5700787D3*
D91*
X6974016D3*
D89*
Y5100787D3*
D91*
X10924016Y5300787D3*
D89*
X10324016D3*
D91*
X2109055Y2665748D3*
D89*
X1509055D3*
D91*
X10424016Y3400787D3*
D89*
X11024016D3*
D68*
X1159055Y2065748D3*
D67*
Y2165748D3*
Y2265748D3*
D33*
X2024016Y2100787D3*
D34*
Y2000787D3*
Y1900787D3*
D33*
X6674016Y1150787D3*
D34*
Y1250787D3*
Y1350787D3*
D65*
X824016Y3300787D3*
D63*
Y3115748D3*
Y2930709D3*
D62*
X886614Y2805709D3*
X761417D3*
Y3425787D3*
X886614D3*
D18*
X2424016Y5600787D3*
D19*
X2324016D3*
X2224016D3*
X2124016D3*
Y5300787D3*
X2224016D3*
X2324016D3*
X2424016D3*
D18*
X6274016Y5600787D3*
D19*
X6174016D3*
X6074016D3*
X5974016D3*
Y5300787D3*
X6074016D3*
X6174016D3*
X6274016D3*
D18*
X10624016Y4550787D3*
D19*
Y4450787D3*
Y4350787D3*
Y4250787D3*
X10924016D3*
Y4350787D3*
Y4450787D3*
Y4550787D3*
D18*
X4624016Y2050787D3*
D19*
X4524016D3*
X4424016D3*
X4324016D3*
Y1750787D3*
X4424016D3*
X4524016D3*
X4624016D3*
D18*
X8174016Y2050787D3*
D19*
X8074016D3*
X7974016D3*
X7874016D3*
Y1750787D3*
X7974016D3*
X8074016D3*
X8174016D3*
D33*
X12849016Y4625787D3*
D34*
Y4725787D3*
Y4825787D3*
Y4925787D3*
Y5025787D3*
Y5125787D3*
Y5225787D3*
D99*
X9474016Y750787D3*
D60*
X9505512Y703543D3*
X9537008Y750787D3*
X9568504Y703543D3*
X9600000Y750787D3*
D58*
X9393307Y551969D3*
X9680709D3*
M02*
