G04 DipTrace 3.3.1.3*
G04 Bottom.gbr*
%MOIN*%
G04 #@! TF.FileFunction,Copper,L2,Bot*
G04 #@! TF.Part,Single*
%AMOUTLINE0*
4,1,8,
-0.009039,0.021824,
0.009039,0.021824,
0.021824,0.009039,
0.021824,-0.009039,
0.009039,-0.021824,
-0.009039,-0.021824,
-0.021824,-0.009039,
-0.021824,0.009039,
-0.009039,0.021824,
0*%
G04 #@! TA.AperFunction,Conductor*
%ADD13C,0.016*%
%ADD14C,0.03937*%
G04 #@! TA.AperFunction,ComponentPad*
%ADD16C,0.07*%
%ADD17C,0.07*%
%ADD18R,0.066929X0.066929*%
%ADD19C,0.066929*%
%ADD20C,0.05*%
%ADD21R,0.05X0.05*%
%ADD22R,0.090551X0.090551*%
%ADD23C,0.090551*%
%ADD24R,0.066535X0.066535*%
%ADD25C,0.066535*%
%ADD26C,0.187402*%
%ADD27R,0.059055X0.059055*%
%ADD28C,0.059055*%
%ADD29C,0.062992*%
%ADD30R,0.062992X0.062992*%
%ADD31O,0.11811X0.062992*%
%ADD33R,0.074803X0.074803*%
%ADD34C,0.074803*%
%ADD35R,0.122047X0.122047*%
%ADD36C,0.122047*%
%ADD37C,0.098425*%
%ADD38C,0.047244*%
%ADD39O,0.066929X0.106299*%
G04 #@! TA.AperFunction,ViaPad*
%ADD40C,0.04*%
G04 #@! TA.AperFunction,ComponentPad*
%ADD97OUTLINE0*%
%FSLAX26Y26*%
G04*
G70*
G90*
G75*
G01*
G04 Bottom*
%LPD*%
X4024016Y3050787D2*
D13*
Y6450787D1*
X1509055Y2665748D2*
Y2385827D1*
X1288976Y2165748D1*
X1159055D1*
X11024016Y1200787D2*
D14*
X10812568Y1412235D1*
Y2577030D1*
X10224016Y3165583D1*
Y3950787D1*
X10624016Y4350787D1*
X7874016Y6050787D2*
X8324016Y5600787D1*
Y4350787D1*
X2224016Y5600787D2*
X2144488Y5521260D1*
X1374016D1*
X1159055D1*
X1024016Y5656299D1*
Y6750787D1*
X1824016Y2150787D2*
X1698063D1*
Y2155252D1*
X7974016Y3900787D2*
X7824016D1*
X7674016Y3750787D1*
Y2755118D1*
X7974016Y2455118D1*
Y2050787D1*
X7724016Y6550787D2*
X7574016D1*
X7474016Y6450787D1*
Y6150787D1*
X7574016Y6050787D1*
X10624016Y4350787D2*
X10674016D1*
X10724016Y4400787D1*
Y5900787D1*
X11224016Y6400787D1*
X12524016D1*
X12674016Y6250787D1*
Y5850787D1*
Y5300787D1*
X12849016Y5125787D1*
X1159055Y2265748D2*
X1174016D1*
Y3300787D1*
Y3344749D1*
X1374016Y3544749D1*
Y5521260D1*
X1174016Y3300787D2*
X824016D1*
X12849016Y5125787D2*
X13149016Y4825787D1*
Y3425787D1*
X12674016Y5850787D2*
X12774016Y5750787D1*
X13224016D1*
X1698063Y2155252D2*
X1574016Y2031205D1*
Y1050787D1*
X1824016Y800787D1*
X6274016Y2100787D2*
Y1200787D1*
X6224016Y1150787D1*
Y800787D1*
X7974016Y2050787D2*
Y2450787D1*
X7774016Y2650787D1*
X6374016D1*
X6274016Y2550787D1*
Y2100787D1*
X7574016Y6050787D2*
Y5650787D1*
X7424016Y5500787D1*
X6540618D1*
X6361091Y5680315D1*
X6153543D1*
X6074016Y5600787D1*
X6974016Y6550787D2*
Y6600787D1*
X7074016Y6700787D1*
X7724016D1*
X7874016Y6550787D1*
X12849016Y5225787D2*
X12974016Y5350787D1*
X13224016D1*
X13374016Y5500787D1*
Y5850787D1*
X13324016Y5900787D1*
X13224016D1*
X6374016Y800787D2*
Y700787D1*
X6324016Y650787D1*
X6124016D1*
X6074016Y700787D1*
Y1200787D1*
X6124016Y1250787D1*
Y3100787D1*
X4924016Y4300787D1*
Y5200787D1*
X5224016Y5500787D1*
X6124016D1*
X6174016Y5550787D1*
Y5600787D1*
X5874016Y700787D2*
Y2100787D1*
X5724016Y2250787D1*
X4624016D1*
X4524016Y2150787D1*
Y2050787D1*
X2633543Y800787D2*
X2474016Y960315D1*
Y2500787D1*
X2724016Y2750787D1*
Y5750787D1*
X2674016Y5800787D1*
X2374016D1*
X2324016Y5750787D1*
Y5600787D1*
X1974016Y800787D2*
X1878740Y705512D1*
X1401887D1*
X1372883Y734516D1*
Y1253365D1*
X1246457Y1379791D1*
X1217453Y1350787D1*
X924016D1*
X1246457Y1379791D2*
Y1978346D1*
X1159055Y2065748D1*
X8574016Y800787D2*
Y650787D1*
X8624016Y600787D1*
X9024016D1*
X9181843Y758614D1*
Y958614D1*
X9324016Y1100787D1*
Y1350787D1*
X10574016Y1650787D2*
Y1000787D1*
X10674016Y900787D1*
X11224016D1*
X11274016Y950787D1*
Y1200787D1*
X11260236D1*
X1574016Y6550787D2*
X1474016D1*
X1374016Y6450787D1*
Y6150787D1*
X1474016Y6050787D1*
X1524016D1*
X5274016Y800787D2*
Y850787D1*
X5474016Y1050787D1*
Y1250787D1*
X5374016Y1350787D1*
X5274016D1*
X5374016Y6550787D2*
X5224016Y6400787D1*
Y6100787D1*
X5274016Y6050787D1*
X5374016D1*
X12024016Y5400787D2*
Y4950787D1*
X11474016Y5650787D2*
Y5200787D1*
X4624016Y6600787D2*
Y6450787D1*
X7874016Y5550787D2*
X8174016Y5250787D1*
Y3800787D1*
X8474016D1*
X8674016Y3600787D1*
Y2050787D1*
X8574016Y1950787D1*
X8074016D1*
Y2050787D1*
X7874016Y6550787D2*
Y6350787D1*
X7674016Y6150787D1*
Y5750787D1*
X7874016Y5550787D1*
X13224016Y5900787D2*
Y6050787D1*
X12674016Y6600787D1*
X10474016D1*
X10024016Y6150787D1*
Y4700787D1*
X10274016Y4450787D1*
X10624016D1*
X1159055Y2065748D2*
X1438976D1*
X1674016Y2300787D1*
Y3049786D1*
X1559055Y3164747D1*
Y3265748D1*
X7974016Y3800787D2*
X8174016D1*
X12024016Y3950787D2*
Y3450787D1*
Y4450787D2*
Y3950787D1*
Y4950787D2*
Y4450787D1*
X768110Y4960827D2*
X1013976D1*
X1174016Y4800787D1*
Y4150787D1*
X1000197Y3976969D1*
X768110D1*
X624016Y1450787D2*
Y1125386D1*
X845465Y903937D1*
X890551D1*
X768110Y3976969D2*
X624016Y3832874D1*
Y1450787D1*
X6174016Y5300787D2*
D13*
Y5100787D1*
X6124016Y5050787D1*
X5924016D1*
X5874016Y5000787D1*
X3774016Y2300787D2*
Y5351315D1*
X10924016Y4450787D2*
X11024016D1*
X11074016Y4400787D1*
Y3600787D1*
X8074016Y1750787D2*
Y1800787D1*
X8124016Y1850787D1*
X8724016D1*
X8829000Y1955772D1*
Y3456787D1*
X11074016Y3600787D2*
X11024016Y3550787D1*
Y3400787D1*
X2724016Y1900787D2*
Y1550787D1*
X2624016Y1450787D1*
X2924016Y2100787D2*
X2824016D1*
X2724016Y2000787D1*
Y1900787D1*
X2624016Y1450787D2*
X3124016Y950787D1*
X3824016D1*
X3874016Y1000787D1*
Y1100787D1*
X6474016Y1050787D2*
Y1250787D1*
X6574016Y1350787D1*
X6674016D1*
X10824016Y5500787D2*
Y4350787D1*
X10724016Y4250787D1*
X10624016D1*
X11574016Y5550787D2*
Y5200787D1*
X7324016Y1250787D2*
Y1100787D1*
X7274016Y1050787D1*
X7124016D1*
X7074016Y1100787D1*
Y1450787D1*
X7324016Y1700787D1*
X9224016Y2300787D2*
Y1250787D1*
X4324016Y1950787D2*
Y2050787D1*
X5774016Y1050787D2*
Y1950787D1*
X5274016Y1050787D2*
Y1250787D1*
X10474016Y5800787D2*
Y4700787D1*
X10624016Y4550787D1*
X11624016Y5800787D2*
X11724016Y5700787D1*
Y5250787D1*
X11574016Y5100787D1*
X3562752Y1756787D2*
Y1479787D1*
X3533752Y1450787D1*
X3224016D1*
X5674016Y1100787D2*
Y1808791D1*
X5432020Y2050787D1*
X4624016D1*
X5174016Y1109787D2*
Y1250787D1*
X924016Y1075197D2*
X898425Y1100787D1*
X874016D1*
X724016Y1250787D1*
Y2050787D1*
X1074016Y2400787D1*
Y2865748D1*
X824016Y3115748D1*
X8574016Y2300787D2*
X8374016D1*
X8324016Y2250787D1*
Y2100787D1*
X8274016Y2050787D1*
X8174016D1*
X8874016Y1550787D2*
X8924016Y1500787D1*
Y1150787D1*
X8874016Y1100787D1*
X8774016D1*
X8724016Y1150787D1*
Y1250787D1*
X10224016Y4900787D2*
Y5200787D1*
X10324016Y5300787D1*
X5474016Y5350787D2*
X5574016D1*
X5624016Y5400787D1*
X6624016D1*
X6674016Y5350787D1*
X6824016D1*
X8674016D2*
X8692510Y5332293D1*
X9371000D1*
X9600000Y5103293D1*
Y750787D1*
X4524016Y5650787D2*
Y5750787D1*
X4474016Y5800787D1*
X4174016D1*
X4124016Y5750787D1*
Y5650787D1*
X5974016Y850787D2*
Y2200787D1*
X5774016Y2400787D1*
X4145890D1*
X3887417Y2142315D1*
Y1464189D1*
X3774016Y1350787D1*
X1659055Y3265748D2*
X1809055D1*
X1924016Y3150787D1*
Y2850787D1*
X2109055Y2665748D1*
X8324016Y1250787D2*
X8620020Y954783D1*
Y754783D1*
X8674016Y700787D1*
X8853480D1*
X9024016Y871323D1*
Y3700787D1*
X9124016Y3600787D2*
Y1150787D1*
X2924016Y1900787D2*
X3139016Y1685787D1*
Y1220787D1*
X3309016Y1050787D1*
X3674016D1*
X3874016Y1250787D1*
X2024016Y2100787D2*
X1824016Y1900787D1*
Y1625323D1*
X2135845Y1313493D1*
Y763516D1*
X2298573Y600787D1*
X3874016D1*
X4374016Y1100787D1*
Y1250787D1*
X1824016Y1625323D2*
X1724016Y1525323D1*
Y1450787D1*
X10424016Y3400787D2*
X10674016D1*
X10773938Y3500710D1*
Y4200710D1*
X10924016Y4350787D1*
X3774016Y1700787D2*
X3674016Y1800787D1*
Y4700787D1*
X2524016D2*
X2224016Y5000787D1*
Y5300787D1*
X4324016Y1600787D2*
X4339016D1*
X4424016Y1685787D1*
Y1750787D1*
X9424016Y4750787D2*
Y750787D1*
X9474016D1*
X4724016Y5650787D2*
Y4000787D1*
X11924016Y5750787D2*
Y4500787D1*
X11724016Y4300787D1*
X11574016D1*
X5724016Y5150787D2*
Y4950787D1*
X5824016Y4850787D1*
X7074016D1*
X11774016Y5900787D2*
Y5850787D1*
X11824016Y5800787D1*
Y4800787D1*
X11724016Y4700787D1*
X11574016D1*
X2024016Y2000787D2*
X2324016Y1700787D1*
Y1450787D1*
X6874016Y6150787D2*
Y6250787D1*
X6924016Y6300787D1*
X7074016D1*
X7124016Y6250787D1*
Y5850787D1*
X6974016Y5700787D1*
X3024016Y6150787D2*
Y6250787D1*
X3074016Y6300787D1*
X3174016D1*
X3224016Y6250787D1*
Y5800787D1*
X3124016Y5700787D1*
X11574016Y3700787D2*
X11674016Y3600787D1*
Y3400787D1*
X11624016Y3350787D1*
X11424016D1*
X11174016Y3600787D1*
Y4550787D1*
X10924016Y4800787D1*
Y5300787D1*
X12549016Y3425787D2*
X12849016Y3725787D1*
Y3975787D1*
X5374016Y800787D2*
X5474016D1*
X5574016Y900787D1*
Y1350787D1*
X5424016Y1500787D1*
X5224016D1*
X5174016Y1450787D1*
Y1350787D1*
X4824016Y800787D2*
X4924016Y700787D1*
X5524016D1*
X5624016Y800787D1*
Y1450787D1*
X5424016Y1650787D1*
X5174016D1*
X5074016Y1550787D1*
Y1350787D1*
X5724016Y1500787D2*
Y750787D1*
X5574016Y600787D1*
X4524016D1*
X4324016Y800787D1*
X6924016Y1500787D2*
Y750787D1*
X7024016Y650787D1*
X7224016D1*
X7355512Y782283D1*
Y800787D1*
X8624016Y1350787D2*
Y1600787D1*
X8674016Y1650787D1*
X8924016D1*
X8974016Y1600787D1*
Y1100787D1*
X8674016Y800787D1*
X1674016Y6550787D2*
Y6600787D1*
X1624016Y6650787D1*
X1424016D1*
X1274016Y6500787D1*
Y6050787D1*
X1374016Y5950787D1*
X1574016D1*
X1624016Y6000787D1*
Y6050787D1*
X2224016Y6550787D2*
Y6650787D1*
X2124016Y6750787D1*
X1374016D1*
X1174016Y6550787D1*
Y6000787D1*
X1324016Y5850787D1*
X1624016D1*
X1724016Y5950787D1*
Y6050787D1*
X3324016Y5900787D2*
Y6400787D1*
X3174016Y6550787D1*
X2924016D1*
X11124016Y5450787D2*
Y4950787D1*
X12124016D2*
X12324016D1*
X12474016Y5100787D1*
Y5800787D1*
X12224016Y6050787D1*
X11474016D1*
X11324016Y5900787D1*
Y5150787D1*
X11474016Y5000787D1*
X12124016Y4450787D2*
X12424016D1*
X12574016Y4600787D1*
Y6000787D1*
X12324016Y6250787D1*
X11424016D1*
X11224016Y6050787D1*
Y5050787D1*
X11374016Y4900787D1*
X11474016D1*
X11174016Y4700787D2*
X11474016D1*
X12224016Y3600787D2*
Y3450787D1*
X12124016D1*
X5474016Y6550787D2*
Y6600787D1*
X5424016Y6650787D1*
X5224016D1*
X5074016Y6500787D1*
Y5950787D1*
X5174016Y5850787D1*
X5374016D1*
X5474016Y5950787D1*
Y6050787D1*
X6074016Y6550787D2*
X5874016Y6750787D1*
X5124016D1*
X4974016Y6600787D1*
Y5850787D1*
X5074016Y5750787D1*
X5424016D1*
X5574016Y5900787D1*
Y6050787D1*
X6574016Y6550787D2*
X6724016Y6400787D1*
X7124016D1*
X7224016Y6300787D1*
Y5750787D1*
X7074016Y5600787D1*
X6774016D1*
X6524016Y5850787D1*
X5874016D1*
X5674016Y6050787D1*
D40*
X5874016Y5000787D3*
X6474016Y1050787D3*
X5474016Y5350787D3*
X6824016D3*
D3*
X5724016Y5150787D3*
X7074016Y4850787D3*
X5474016Y5350787D3*
X6824016D3*
X6474016Y1050787D3*
X4024016Y3050787D3*
X7574016Y6050787D3*
X1824016Y2150787D3*
X8324016Y4350787D3*
X1698063Y2155252D3*
X6274016Y2100787D3*
X2633543Y800787D3*
X9324016Y1350787D3*
X10574016Y1650787D3*
X11474016Y5650787D3*
X5874016Y700787D3*
X4624016Y6600787D3*
X624016Y1450787D3*
X3774016Y5351315D3*
X8829000Y3456787D3*
X11074016Y3600787D3*
X3874016Y1100787D3*
X2724016Y1900787D3*
X10824016Y5500787D3*
X11574016Y5550787D3*
X9224016Y1250787D3*
Y2300787D3*
X4324016Y1950787D3*
X5774016D3*
Y1050787D3*
X5274016D3*
X11624016Y5800787D3*
X10474016D3*
X3562752Y1756787D3*
X5674016Y1100787D3*
X5174016Y1109787D3*
X8874016Y1550787D3*
X8574016Y2300787D3*
X10224016Y4900787D3*
X8674016Y5350787D3*
X5974016Y850787D3*
X9024016Y3700787D3*
X9124016Y1150787D3*
Y3600787D3*
X3674016Y4700787D3*
X4324016Y1600787D3*
X2524016Y4700787D3*
X9424016Y4750787D3*
X4724016Y4000787D3*
X11924016Y5750787D3*
X11774016Y5900787D3*
X5724016Y1500787D3*
X6924016D3*
X3324016Y5900787D3*
X11124016Y4950787D3*
Y5450787D3*
X11174016Y4700787D3*
X12224016Y3600787D3*
D16*
X3774016Y1700787D3*
D17*
Y2300787D3*
D16*
X13149016Y3425787D3*
D17*
X12549016D3*
D18*
X7974016Y4000787D3*
D19*
Y3900787D3*
Y3800787D3*
Y3700787D3*
Y3600787D3*
Y3500787D3*
D18*
X7874016Y6050787D3*
D19*
Y5950787D3*
Y5850787D3*
Y5750787D3*
Y5650787D3*
Y5550787D3*
D20*
X1659055Y3265748D3*
D21*
X1559055D3*
D20*
X3774016Y800787D3*
D21*
X3674016D3*
D20*
X5374016D3*
D21*
X5274016D3*
D20*
X4824016D3*
D21*
X4724016D3*
D20*
X4324016D3*
D21*
X4224016D3*
D20*
X7355512D3*
D21*
X7255512D3*
D20*
X8674016D3*
D21*
X8574016D3*
D20*
X2224016Y6550787D3*
D21*
X2124016D3*
D20*
X1674016D3*
D21*
X1574016D3*
D20*
X2924016D3*
D21*
X2824016D3*
D20*
X12124016Y5400787D3*
D21*
X12024016D3*
D20*
X12124016Y4950787D3*
D21*
X12024016D3*
D20*
X12124016Y4450787D3*
D21*
X12024016D3*
D20*
X12124016Y3950787D3*
D21*
X12024016D3*
D20*
X12124016Y3450787D3*
D21*
X12024016D3*
D20*
X5474016Y6550787D3*
D21*
X5374016D3*
D20*
X6074016D3*
D21*
X5974016D3*
D20*
X6574016D3*
D21*
X6474016D3*
D20*
X7074016D3*
D21*
X6974016D3*
D18*
X2924016Y1900787D3*
D19*
Y2000787D3*
Y2100787D3*
D18*
X4024016Y6450787D3*
D19*
X4124016D3*
X4224016D3*
X4324016D3*
X4424016D3*
X4524016D3*
X4624016D3*
X4724016D3*
X4824016D3*
D18*
X12849016Y3975787D3*
D19*
Y4075787D3*
D18*
X3124016Y6050787D3*
D19*
Y6150787D3*
X3024016Y6050787D3*
Y6150787D3*
X2924016Y6050787D3*
Y6150787D3*
X2824016Y6050787D3*
Y6150787D3*
X2724016Y6050787D3*
Y6150787D3*
X2624016Y6050787D3*
Y6150787D3*
X2524016Y6050787D3*
Y6150787D3*
X2424016Y6050787D3*
Y6150787D3*
X2324016Y6050787D3*
Y6150787D3*
X2224016Y6050787D3*
Y6150787D3*
X2124016Y6050787D3*
Y6150787D3*
X2024016Y6050787D3*
Y6150787D3*
X1924016Y6050787D3*
Y6150787D3*
X1824016Y6050787D3*
Y6150787D3*
X1724016Y6050787D3*
Y6150787D3*
X1624016Y6050787D3*
Y6150787D3*
X1524016Y6050787D3*
Y6150787D3*
D18*
X6974016Y6050787D3*
D19*
Y6150787D3*
X6874016Y6050787D3*
Y6150787D3*
X6774016Y6050787D3*
Y6150787D3*
X6674016Y6050787D3*
Y6150787D3*
X6574016Y6050787D3*
Y6150787D3*
X6474016Y6050787D3*
Y6150787D3*
X6374016Y6050787D3*
Y6150787D3*
X6274016Y6050787D3*
Y6150787D3*
X6174016Y6050787D3*
Y6150787D3*
X6074016Y6050787D3*
Y6150787D3*
X5974016Y6050787D3*
Y6150787D3*
X5874016Y6050787D3*
Y6150787D3*
X5774016Y6050787D3*
Y6150787D3*
X5674016Y6050787D3*
Y6150787D3*
X5574016Y6050787D3*
Y6150787D3*
X5474016Y6050787D3*
Y6150787D3*
X5374016Y6050787D3*
Y6150787D3*
D18*
X11474016Y3600787D3*
D19*
X11574016D3*
X11474016Y3700787D3*
X11574016D3*
X11474016Y3800787D3*
X11574016D3*
X11474016Y3900787D3*
X11574016D3*
X11474016Y4000787D3*
X11574016D3*
X11474016Y4100787D3*
X11574016D3*
X11474016Y4200787D3*
X11574016D3*
X11474016Y4300787D3*
X11574016D3*
X11474016Y4400787D3*
X11574016D3*
X11474016Y4500787D3*
X11574016D3*
X11474016Y4600787D3*
X11574016D3*
X11474016Y4700787D3*
X11574016D3*
X11474016Y4800787D3*
X11574016D3*
X11474016Y4900787D3*
X11574016D3*
X11474016Y5000787D3*
X11574016D3*
X11474016Y5100787D3*
X11574016D3*
X11474016Y5200787D3*
X11574016D3*
D18*
X7224016Y1350787D3*
D19*
Y1250787D3*
X7324016Y1350787D3*
Y1250787D3*
X7424016Y1350787D3*
Y1250787D3*
X7524016Y1350787D3*
Y1250787D3*
X7624016Y1350787D3*
Y1250787D3*
X7724016Y1350787D3*
Y1250787D3*
X7824016Y1350787D3*
Y1250787D3*
X7924016Y1350787D3*
Y1250787D3*
X8024016Y1350787D3*
Y1250787D3*
X8124016Y1350787D3*
Y1250787D3*
X8224016Y1350787D3*
Y1250787D3*
X8324016Y1350787D3*
Y1250787D3*
X8424016Y1350787D3*
Y1250787D3*
X8524016Y1350787D3*
Y1250787D3*
X8624016Y1350787D3*
Y1250787D3*
X8724016Y1350787D3*
Y1250787D3*
X8824016Y1350787D3*
Y1250787D3*
D18*
X3674016Y1350787D3*
D19*
Y1250787D3*
X3774016Y1350787D3*
Y1250787D3*
X3874016Y1350787D3*
Y1250787D3*
X3974016Y1350787D3*
Y1250787D3*
X4074016Y1350787D3*
Y1250787D3*
X4174016Y1350787D3*
Y1250787D3*
X4274016Y1350787D3*
Y1250787D3*
X4374016Y1350787D3*
Y1250787D3*
X4474016Y1350787D3*
Y1250787D3*
X4574016Y1350787D3*
Y1250787D3*
X4674016Y1350787D3*
Y1250787D3*
X4774016Y1350787D3*
Y1250787D3*
X4874016Y1350787D3*
Y1250787D3*
X4974016Y1350787D3*
Y1250787D3*
X5074016Y1350787D3*
Y1250787D3*
X5174016Y1350787D3*
Y1250787D3*
X5274016Y1350787D3*
Y1250787D3*
D22*
X7724016Y6550787D3*
D23*
X7874016D3*
D24*
X824016Y4250787D3*
D25*
Y4359843D3*
Y4468898D3*
Y4577953D3*
Y4687008D3*
X712205Y4305315D3*
Y4414370D3*
Y4523425D3*
Y4632480D3*
D26*
X768111Y3976969D3*
Y4960827D3*
D18*
X3424016Y6650787D3*
D19*
X3524016D3*
D22*
X1024016Y6750787D3*
D23*
X1174016D3*
D22*
X6224016Y800787D3*
D23*
X6374016D3*
D27*
X11024016Y1200787D3*
D28*
X11102756D3*
X11181496D3*
X11260236D3*
X11338976D3*
X11417717D3*
X11496457D3*
X11575197D3*
X11653937D3*
X11732677D3*
X11811417D3*
X11890157D3*
X11968898D3*
X12047638D3*
X12126378D3*
X12205118D3*
X12283858D3*
X12362598D3*
X12441339D3*
X12520079D3*
X12598819D3*
Y1279528D3*
X12520079D3*
X12441339D3*
X12362598D3*
X12283858D3*
X12205118D3*
X12126378D3*
X12047638D3*
X11968898D3*
X11890157D3*
X11811417D3*
X11732677D3*
X11653937D3*
X11575197D3*
X11496457D3*
X11417717D3*
X11338976D3*
X11260236D3*
X11181496D3*
X11102756D3*
X11024016D3*
D22*
X13224016Y5750787D3*
D23*
Y5900787D3*
D29*
X924016Y1350787D3*
Y1252362D3*
Y1173622D3*
D30*
Y1075197D3*
D31*
X890551Y1522047D3*
Y903937D3*
D22*
X1824016Y800787D3*
D23*
X1974016D3*
D18*
X4124016Y5650787D3*
D19*
X4224016D3*
X4324016D3*
X4424016D3*
X4524016D3*
X4624016D3*
X4724016D3*
D16*
X1724016Y1450787D3*
D17*
X2324016D3*
D16*
X3224016D3*
D17*
X2624016D3*
D16*
X7324016Y2300787D3*
D17*
Y1700787D3*
D16*
X3124016Y5100787D3*
D17*
Y5700787D3*
D16*
X6974016D3*
D17*
Y5100787D3*
D16*
X10924016Y5300787D3*
D17*
X10324016D3*
D16*
X2109055Y2665748D3*
D17*
X1509055D3*
D16*
X10424016Y3400787D3*
D17*
X11024016D3*
D33*
X1159055Y2065748D3*
D34*
Y2165748D3*
Y2265748D3*
D18*
X2024016Y2100787D3*
D19*
Y2000787D3*
Y1900787D3*
D35*
X824016Y3300787D3*
D36*
Y3115748D3*
Y2930709D3*
D37*
X886614Y2805709D3*
X761417D3*
Y3425787D3*
X886614D3*
D18*
X6674016Y1150787D3*
D19*
Y1250787D3*
Y1350787D3*
D27*
X2424016Y5600787D3*
D28*
X2324016D3*
X2224016D3*
X2124016D3*
Y5300787D3*
X2224016D3*
X2324016D3*
X2424016D3*
D27*
X6274016Y5600787D3*
D28*
X6174016D3*
X6074016D3*
X5974016D3*
Y5300787D3*
X6074016D3*
X6174016D3*
X6274016D3*
D27*
X10624016Y4550787D3*
D28*
Y4450787D3*
Y4350787D3*
Y4250787D3*
X10924016D3*
Y4350787D3*
Y4450787D3*
Y4550787D3*
D27*
X4624016Y2050787D3*
D28*
X4524016D3*
X4424016D3*
X4324016D3*
Y1750787D3*
X4424016D3*
X4524016D3*
X4624016D3*
D27*
X8174016Y2050787D3*
D28*
X8074016D3*
X7974016D3*
X7874016D3*
Y1750787D3*
X7974016D3*
X8074016D3*
X8174016D3*
D18*
X12849016Y4625787D3*
D19*
Y4725787D3*
Y4825787D3*
Y4925787D3*
Y5025787D3*
Y5125787D3*
Y5225787D3*
D97*
X9474016Y750787D3*
D38*
X9505512Y703543D3*
X9537008Y750787D3*
X9568504Y703543D3*
X9600000Y750787D3*
D39*
X9393307Y551969D3*
X9680709D3*
M02*
