M48
INCH
T01C0.0191
T02C0.0276
T03C0.028
T04C0.0354
T05C0.0362
T06C0.0429
T07C0.0433
T08C0.046
T09C0.046
T10C0.0591
T11C0.0728
T12C0.1
T13C0.1063
T14C0.1283
%
T01
X+054740Y+053508
X+057240Y+051508
X+058740Y+050008
X+068240Y+053508
X+070740Y+048508
X+075740Y+060508
X+086740Y+053508
X+094240Y+047508
X+102240Y+049008
X+108240Y+055008
X+111240Y+054508
X+114740Y+056508
X+115740Y+055508
X+116240Y+058008
X+117740Y+059008
X+119240Y+057508
X+111240Y+049508
X+111740Y+047008
X+110740Y+036008
X+122240Y+036008
X+105740Y+016508
X+093240Y+013508
X+092240Y+012508
X+091240Y+011508
X+088740Y+015508
X+085740Y+023008
X+092240Y+023008
X+088290Y+034568
X+090240Y+037008
X+091240Y+036008
X+083240Y+043508
X+104740Y+058008
X+069240Y+015008
X+064740Y+010508
X+059740Y+008508
X+058740Y+007008
X+057740Y+010508
X+056740Y+011008
X+052740Y+010508
X+051740Y+011098
X+057240Y+015008
X+057740Y+019508
X+062740Y+021008
X+043240Y+019508
X+043240Y+016008
X+038740Y+011008
X+035628Y+017568
X+027240Y+019008
X+018240Y+021508
X+016981Y+021553
X+006240Y+014508
X+026335Y+008008
X+040240Y+030508
X+047240Y+040008
X+036740Y+048508
X+037740Y+053513
X+033240Y+059008
X+025240Y+047008
X+046240Y+066008
T02
X+094740Y+007508
X+095055Y+007035
X+095370Y+007508
X+095685Y+007035
X+096000Y+007508
X+096807Y+005283G85X+096807Y+005756
X+093933Y+005283G85X+093933Y+005756
T03
X+016591Y+032657
X+015591Y+032657
X+036740Y+008008
X+037740Y+008008
X+042240Y+008008
X+043240Y+008008
X+047240Y+008008
X+048240Y+008008
X+052740Y+008008
X+053740Y+008008
X+072555Y+008008
X+073555Y+008008
X+085740Y+008008
X+086740Y+008008
X+120240Y+034508
X+121240Y+034508
X+121240Y+039508
X+120240Y+039508
X+120240Y+044508
X+121240Y+044508
X+121240Y+049508
X+120240Y+049508
X+120240Y+054008
X+121240Y+054008
X+070740Y+065508
X+069740Y+065508
X+065740Y+065508
X+064740Y+065508
X+060740Y+065508
X+059740Y+065508
X+054740Y+065508
X+053740Y+065508
X+029240Y+065508
X+028240Y+065508
X+022240Y+065508
X+021240Y+065508
X+016740Y+065508
X+015740Y+065508
T04
X+110240Y+012008
X+111028Y+012008
X+111815Y+012008
X+112602Y+012008
X+113390Y+012008
X+114177Y+012008
X+114965Y+012008
X+115752Y+012008
X+116539Y+012008
X+117327Y+012008
X+118114Y+012008
X+118902Y+012008
X+119689Y+012008
X+120476Y+012008
X+121264Y+012008
X+122051Y+012008
X+122839Y+012008
X+123626Y+012008
X+124413Y+012008
X+125201Y+012008
X+125988Y+012008
X+125988Y+012795
X+125201Y+012795
X+124413Y+012795
X+123626Y+012795
X+122839Y+012795
X+122051Y+012795
X+121264Y+012795
X+120476Y+012795
X+119689Y+012795
X+118902Y+012795
X+118114Y+012795
X+117327Y+012795
X+116539Y+012795
X+115752Y+012795
X+114965Y+012795
X+114177Y+012795
X+113390Y+012795
X+112602Y+012795
X+111815Y+012795
X+111028Y+012795
X+110240Y+012795
X+081740Y+017508
X+080740Y+017508
X+079740Y+017508
X+078740Y+017508
X+078740Y+020508
X+079740Y+020508
X+080740Y+020508
X+081740Y+020508
X+106240Y+042508
X+106240Y+043508
X+106240Y+044508
X+106240Y+045508
X+109240Y+045508
X+109240Y+044508
X+109240Y+043508
X+109240Y+042508
X+062740Y+053008
X+061740Y+053008
X+060740Y+053008
X+059740Y+053008
X+059740Y+056008
X+060740Y+056008
X+061740Y+056008
X+062740Y+056008
X+024240Y+056008
X+023240Y+056008
X+022240Y+056008
X+021240Y+056008
X+021240Y+053008
X+022240Y+053008
X+023240Y+053008
X+024240Y+053008
X+043240Y+020508
X+044240Y+020508
X+045240Y+020508
X+046240Y+020508
X+046240Y+017508
X+045240Y+017508
X+044240Y+017508
X+043240Y+017508
X+009181Y+015220G85X+008630Y+015220
X+009181Y+009039G85X+008630Y+009039
T05
X+009240Y+013508
X+009240Y+012524
X+009240Y+011736
X+009240Y+010752
T06
X+008240Y+042508
X+008240Y+043598
X+008240Y+044689
X+008240Y+045780
X+008240Y+046870
X+007122Y+046325
X+007122Y+045234
X+007122Y+044144
X+007122Y+043053
T07
X+079740Y+040008
X+079740Y+039008
X+079740Y+038008
X+079740Y+037008
X+079740Y+036008
X+079740Y+035008
X+078740Y+055508
X+078740Y+056508
X+078740Y+057508
X+078740Y+058508
X+078740Y+059508
X+078740Y+060508
X+078740Y+065508
X+077240Y+065508
X+069740Y+061508
X+069740Y+060508
X+068740Y+060508
X+068740Y+061508
X+067740Y+061508
X+067740Y+060508
X+066740Y+060508
X+066740Y+061508
X+065740Y+061508
X+065740Y+060508
X+064740Y+060508
X+064740Y+061508
X+063740Y+061508
X+063740Y+060508
X+062740Y+060508
X+062740Y+061508
X+061740Y+061508
X+061740Y+060508
X+060740Y+060508
X+060740Y+061508
X+059740Y+061508
X+059740Y+060508
X+058740Y+060508
X+058740Y+061508
X+057740Y+061508
X+057740Y+060508
X+056740Y+060508
X+056740Y+061508
X+055740Y+061508
X+055740Y+060508
X+054740Y+060508
X+054740Y+061508
X+053740Y+061508
X+053740Y+060508
X+048240Y+064508
X+047240Y+064508
X+046240Y+064508
X+045240Y+064508
X+044240Y+064508
X+043240Y+064508
X+042240Y+064508
X+041240Y+064508
X+040240Y+064508
X+035240Y+066508
X+034240Y+066508
X+031240Y+061508
X+031240Y+060508
X+030240Y+060508
X+030240Y+061508
X+029240Y+061508
X+029240Y+060508
X+028240Y+060508
X+028240Y+061508
X+027240Y+061508
X+027240Y+060508
X+026240Y+060508
X+026240Y+061508
X+025240Y+061508
X+025240Y+060508
X+024240Y+060508
X+024240Y+061508
X+023240Y+061508
X+023240Y+060508
X+022240Y+060508
X+022240Y+061508
X+021240Y+061508
X+020240Y+061508
X+020240Y+060508
X+019240Y+060508
X+019240Y+061508
X+018240Y+061508
X+017240Y+061508
X+017240Y+060508
X+016240Y+060508
X+016240Y+061508
X+015240Y+061508
X+015240Y+060508
X+018240Y+060508
X+021240Y+060508
X+011740Y+067508
X+010240Y+067508
X+041240Y+056508
X+042240Y+056508
X+043240Y+056508
X+044240Y+056508
X+045240Y+056508
X+046240Y+056508
X+047240Y+056508
X+029240Y+021008
X+029240Y+020008
X+029240Y+019008
X+020240Y+019008
X+020240Y+020008
X+020240Y+021008
X+011591Y+020657
X+011591Y+021657
X+011591Y+022657
X+018240Y+008008
X+019740Y+008008
X+036740Y+012508
X+036740Y+013508
X+037740Y+013508
X+037740Y+012508
X+038740Y+012508
X+038740Y+013508
X+039740Y+013508
X+039740Y+012508
X+040740Y+012508
X+040740Y+013508
X+041740Y+013508
X+041740Y+012508
X+042740Y+012508
X+042740Y+013508
X+043740Y+013508
X+043740Y+012508
X+044740Y+012508
X+044740Y+013508
X+045740Y+013508
X+045740Y+012508
X+046740Y+012508
X+046740Y+013508
X+047740Y+013508
X+047740Y+012508
X+048740Y+012508
X+048740Y+013508
X+049740Y+013508
X+049740Y+012508
X+050740Y+012508
X+050740Y+013508
X+051740Y+013508
X+051740Y+012508
X+052740Y+012508
X+052740Y+013508
X+062240Y+008008
X+063740Y+008008
X+066740Y+011508
X+066740Y+012508
X+066740Y+013508
X+072240Y+013508
X+072240Y+012508
X+073240Y+012508
X+073240Y+013508
X+074240Y+013508
X+075240Y+013508
X+075240Y+012508
X+074240Y+012508
X+076240Y+012508
X+076240Y+013508
X+077240Y+013508
X+077240Y+012508
X+078240Y+012508
X+078240Y+013508
X+079240Y+013508
X+079240Y+012508
X+080240Y+012508
X+080240Y+013508
X+081240Y+013508
X+081240Y+012508
X+082240Y+012508
X+082240Y+013508
X+083240Y+013508
X+084240Y+013508
X+084240Y+012508
X+083240Y+012508
X+085240Y+012508
X+085240Y+013508
X+086240Y+013508
X+086240Y+012508
X+087240Y+012508
X+087240Y+013508
X+088240Y+013508
X+088240Y+012508
X+114740Y+036008
X+115740Y+036008
X+115740Y+037008
X+114740Y+037008
X+114740Y+038008
X+115740Y+038008
X+115740Y+039008
X+114740Y+039008
X+114740Y+040008
X+115740Y+040008
X+115740Y+041008
X+114740Y+041008
X+114740Y+042008
X+115740Y+042008
X+115740Y+043008
X+115740Y+044008
X+115740Y+045008
X+114740Y+045008
X+114740Y+044008
X+114740Y+043008
X+114740Y+046008
X+114740Y+047008
X+114740Y+048008
X+115740Y+048008
X+115740Y+047008
X+115740Y+046008
X+115740Y+049008
X+114740Y+049008
X+114740Y+050008
X+114740Y+051008
X+115740Y+051008
X+115740Y+050008
X+115740Y+052008
X+114740Y+052008
X+128490Y+052258
X+128490Y+051258
X+128490Y+050258
X+128490Y+049258
X+128490Y+048258
X+128490Y+047258
X+128490Y+046258
X+128490Y+040758
X+128490Y+039758
X+132240Y+057508
X+132240Y+059008
T08
X+037740Y+023008
X+026240Y+014508
X+023240Y+014508
X+015091Y+026657
X+031240Y+057008
X+069740Y+051008
X+103240Y+053008
X+110240Y+034008
X+125490Y+034258
X+073240Y+017008
T09
X+037740Y+017008
X+032240Y+014508
X+017240Y+014508
X+021091Y+026657
X+031240Y+051008
X+069740Y+057008
X+073240Y+023008
X+104240Y+034008
X+109240Y+053008
X+131490Y+034258
T10
X+008866Y+028057
X+007614Y+028057
X+007614Y+034258
X+008866Y+034258
T11
X+008240Y+033008
X+008240Y+031157
X+008240Y+029307
T12
X+052240Y+045508
X+052240Y+027980
X+033933Y+027980
X+005740Y+005508
X+098240Y+013508
X+133240Y+005508
X+097740Y+054591
X+090102Y+054591
X+090102Y+066008
X+097740Y+066008
T13
X+033933Y+045508
X+005740Y+068008
X+133240Y+068008
T14
X+007681Y+039770
X+007681Y+049608
T00
M30
