G04 DipTrace 3.3.1.3*
G04 TopAssy.gbr*
%MOIN*%
G04 #@! TF.FileFunction,Drawing,Top*
G04 #@! TF.Part,Single*
%ADD10C,0.009843*%
%ADD15C,0.001312*%
%ADD97C,0.003088*%
%FSLAX26Y26*%
G04*
G70*
G90*
G75*
G01*
G04 TopAssy*
%LPD*%
X8033855Y4079921D2*
D10*
Y3421654D1*
X12789171Y3886417D2*
Y4165157D1*
X3334646Y6710632D2*
X3613386D1*
X811792Y1474800D2*
G02X811792Y1443344I43J-15728D01*
G01*
X811848Y982686D2*
G02X811848Y951229I-13J-15728D01*
G01*
X811624Y1474800D2*
X445690D1*
X811624Y951145D2*
X445690D1*
X811792Y1443344D2*
Y982686D1*
X445690Y949211D2*
Y815395D1*
Y1610634D2*
Y1476819D1*
X4035039Y5710627D2*
X4812992D1*
X12789177Y4536811D2*
Y5314764D1*
X9359843Y483050D2*
X9714173D1*
X10024016Y1162598D2*
D15*
X13193307D1*
X10949213Y650787D2*
Y2867323D1*
X8072154Y3850222D2*
D97*
X8052058D1*
X8052057Y3841600D1*
X8053030Y3838726D1*
X8053981Y3837775D1*
X8055882Y3836824D1*
X8058756D1*
X8060680Y3837775D1*
X8061630Y3838726D1*
X8062581Y3841600D1*
X8063554Y3838726D1*
X8064504Y3837775D1*
X8066405Y3836824D1*
X8068329D1*
X8070230Y3837775D1*
X8071203Y3838726D1*
X8072153Y3841600D1*
X8072154Y3850222D1*
X8062581D2*
Y3841600D1*
X8072153Y3824901D2*
X8071203Y3826824D1*
X8069279Y3828725D1*
X8067378Y3829698D1*
X8064504Y3830649D1*
X8059707D1*
X8056855Y3829698D1*
X8054931Y3828725D1*
X8053030Y3826824D1*
X8052057Y3824901D1*
Y3821076D1*
X8053030Y3819175D1*
X8054932Y3817251D1*
X8056855Y3816301D1*
X8059707Y3815350D1*
X8064504D1*
X8067378Y3816301D1*
X8069279Y3817251D1*
X8071203Y3819175D1*
X8072153Y3821076D1*
Y3824901D1*
X8052058Y3793854D2*
X8072153Y3801525D1*
X8052058Y3809174D1*
X8058756Y3806300D2*
Y3796728D1*
X8062581Y3787678D2*
Y3779078D1*
X8063554Y3776204D1*
X8064504Y3775231D1*
X8066405Y3774281D1*
X8068329D1*
X8070230Y3775231D1*
X8071203Y3776204D1*
X8072153Y3779078D1*
Y3787678D1*
X8052058D1*
X8062581Y3780979D2*
X8052058Y3774281D1*
X8072153Y3768105D2*
X8052058D1*
Y3761406D1*
X8053030Y3758532D1*
X8054932Y3756609D1*
X8056855Y3755658D1*
X8059707Y3754708D1*
X8064504D1*
X8067378Y3755658D1*
X8069279Y3756609D1*
X8071203Y3758532D1*
X8072153Y3761406D1*
Y3768105D1*
X8072154Y3716667D2*
Y3729092D1*
X8052058D1*
Y3716667D1*
X8062581Y3729092D2*
Y3721442D1*
X8072154Y3710491D2*
X8052058D1*
Y3703793D1*
X8053030Y3700919D1*
X8054932Y3698995D1*
X8056855Y3698045D1*
X8059707Y3697094D1*
X8064504D1*
X8067378Y3698045D1*
X8069279Y3698995D1*
X8071203Y3700919D1*
X8072154Y3703793D1*
Y3710491D1*
X8067378Y3676570D2*
X8069279Y3677521D1*
X8071203Y3679444D1*
X8072154Y3681346D1*
Y3685170D1*
X8071203Y3687094D1*
X8069279Y3688995D1*
X8067378Y3689968D1*
X8064504Y3690918D1*
X8059707D1*
X8056855Y3689968D1*
X8054932Y3688995D1*
X8053030Y3687094D1*
X8052058Y3685170D1*
Y3681346D1*
X8053030Y3679444D1*
X8054932Y3677521D1*
X8056855Y3676570D1*
X8059707D1*
Y3681346D1*
X8072154Y3657970D2*
Y3670395D1*
X8052058D1*
Y3657970D1*
X8062581Y3670395D2*
Y3662745D1*
X12755799Y3927319D2*
X12775895D1*
Y3935941D1*
X12774923Y3938815D1*
X12773972Y3939766D1*
X12772071Y3940717D1*
X12769197D1*
X12767273Y3939766D1*
X12766323Y3938816D1*
X12765372Y3935942D1*
X12764399Y3938816D1*
X12763449Y3939766D1*
X12761547Y3940717D1*
X12759624D1*
X12757723Y3939766D1*
X12756750Y3938816D1*
X12755799Y3935942D1*
Y3927319D1*
X12765372D2*
Y3935942D1*
X12755799Y3952640D2*
X12756750Y3950717D1*
X12758673Y3948816D1*
X12760575Y3947843D1*
X12763449Y3946892D1*
X12768246D1*
X12771098Y3947843D1*
X12773021Y3948816D1*
X12774923Y3950717D1*
X12775895Y3952640D1*
Y3956465D1*
X12774923Y3958366D1*
X12773021Y3960290D1*
X12771098Y3961240D1*
X12768246Y3962191D1*
X12763449D1*
X12760575Y3961240D1*
X12758673Y3960290D1*
X12756750Y3958366D1*
X12755799Y3956465D1*
Y3952640D1*
X12775895Y3983687D2*
X12755799Y3976016D1*
X12775895Y3968367D1*
X12769197Y3971241D2*
Y3980813D1*
X12765372Y3989863D2*
Y3998463D1*
X12764399Y4001337D1*
X12763449Y4002310D1*
X12761547Y4003260D1*
X12759624D1*
X12757723Y4002310D1*
X12756750Y4001337D1*
X12755799Y3998463D1*
Y3989863D1*
X12775895D1*
X12765372Y3996562D2*
X12775895Y4003260D1*
X12755799Y4009436D2*
X12775895D1*
Y4016135D1*
X12774922Y4019009D1*
X12773021Y4020932D1*
X12771098Y4021883D1*
X12768246Y4022833D1*
X12763449D1*
X12760575Y4021883D1*
X12758673Y4020932D1*
X12756750Y4019009D1*
X12755799Y4016135D1*
Y4009436D1*
Y4060874D2*
Y4048450D1*
X12775895D1*
Y4060874D1*
X12765372Y4048450D2*
Y4056099D1*
X12755799Y4067050D2*
X12775895D1*
Y4073749D1*
X12774922Y4076623D1*
X12773021Y4078546D1*
X12771098Y4079497D1*
X12768246Y4080447D1*
X12763449D1*
X12760575Y4079497D1*
X12758673Y4078546D1*
X12756750Y4076623D1*
X12755799Y4073749D1*
Y4067050D1*
X12760575Y4100971D2*
X12758673Y4100020D1*
X12756750Y4098097D1*
X12755799Y4096196D1*
Y4092371D1*
X12756750Y4090448D1*
X12758673Y4088546D1*
X12760575Y4087574D1*
X12763449Y4086623D1*
X12768246D1*
X12771098Y4087574D1*
X12773021Y4088546D1*
X12774922Y4090448D1*
X12775895Y4092371D1*
Y4096196D1*
X12774922Y4098097D1*
X12773021Y4100020D1*
X12771098Y4100971D1*
X12768246D1*
Y4096196D1*
X12755799Y4119571D2*
Y4107147D1*
X12775895D1*
Y4119571D1*
X12765372Y4107147D2*
Y4114796D1*
X3375548Y6744004D2*
Y6723908D1*
X3384170D1*
X3387044Y6724881D1*
X3387994Y6725831D1*
X3388945Y6727733D1*
Y6730607D1*
X3387994Y6732530D1*
X3387044Y6733481D1*
X3384170Y6734431D1*
X3387044Y6735404D1*
X3387994Y6736355D1*
X3388945Y6738256D1*
Y6740179D1*
X3387994Y6742081D1*
X3387044Y6743053D1*
X3384170Y6744004D1*
X3375548D1*
Y6734431D2*
X3384170D1*
X3400869Y6744004D2*
X3398945Y6743053D1*
X3397044Y6741130D1*
X3396071Y6739229D1*
X3395121Y6736355D1*
Y6731557D1*
X3396071Y6728705D1*
X3397044Y6726782D1*
X3398945Y6724881D1*
X3400869Y6723908D1*
X3404693D1*
X3406595Y6724881D1*
X3408518Y6726782D1*
X3409469Y6728705D1*
X3410419Y6731557D1*
Y6736355D1*
X3409469Y6739229D1*
X3408518Y6741130D1*
X3406595Y6743053D1*
X3404693Y6744004D1*
X3400869D1*
X3431916Y6723908D2*
X3424244Y6744004D1*
X3416595Y6723908D1*
X3419469Y6730607D2*
X3429042D1*
X3438091Y6734431D2*
X3446691D1*
X3449565Y6735404D1*
X3450538Y6736355D1*
X3451489Y6738256D1*
Y6740179D1*
X3450538Y6742081D1*
X3449565Y6743053D1*
X3446691Y6744004D1*
X3438091D1*
Y6723908D1*
X3444790Y6734431D2*
X3451489Y6723908D1*
X3457664Y6744004D2*
Y6723908D1*
X3464363D1*
X3467237Y6724881D1*
X3469161Y6726782D1*
X3470111Y6728705D1*
X3471062Y6731557D1*
Y6736355D1*
X3470111Y6739229D1*
X3469161Y6741130D1*
X3467237Y6743053D1*
X3464363Y6744004D1*
X3457664D1*
X3509103D2*
X3496678D1*
Y6723908D1*
X3509103D1*
X3496678Y6734431D2*
X3504327D1*
X3515278Y6744004D2*
Y6723908D1*
X3521977D1*
X3524851Y6724881D1*
X3526774Y6726782D1*
X3527725Y6728705D1*
X3528676Y6731557D1*
Y6736355D1*
X3527725Y6739229D1*
X3526774Y6741130D1*
X3524851Y6743053D1*
X3521977Y6744004D1*
X3515278D1*
X3549199Y6739229D2*
X3548249Y6741130D1*
X3546325Y6743053D1*
X3544424Y6744004D1*
X3540599D1*
X3538676Y6743053D1*
X3536775Y6741130D1*
X3535802Y6739229D1*
X3534851Y6736355D1*
Y6731557D1*
X3535802Y6728705D1*
X3536775Y6726782D1*
X3538676Y6724881D1*
X3540599Y6723908D1*
X3544424D1*
X3546325Y6724881D1*
X3548249Y6726782D1*
X3549199Y6728705D1*
Y6731557D1*
X3544424D1*
X3567799Y6744004D2*
X3555375D1*
Y6723908D1*
X3567799D1*
X3555375Y6734431D2*
X3563024D1*
X431442Y850630D2*
Y863054D1*
X411346D1*
Y850630D1*
X421869Y863054D2*
Y855405D1*
X431442Y844454D2*
X411346D1*
Y837755D1*
X412319Y834881D1*
X414220Y832958D1*
X416143Y832007D1*
X418995Y831057D1*
X423793D1*
X426667Y832007D1*
X428568Y832958D1*
X430491Y834881D1*
X431442Y837755D1*
Y844454D1*
X426667Y810533D2*
X428568Y811484D1*
X430491Y813407D1*
X431442Y815308D1*
Y819133D1*
X430491Y821056D1*
X428568Y822958D1*
X426667Y823930D1*
X423793Y824881D1*
X418995D1*
X416143Y823930D1*
X414220Y822958D1*
X412319Y821056D1*
X411346Y819133D1*
Y815308D1*
X412319Y813407D1*
X414220Y811484D1*
X416143Y810533D1*
X418995D1*
Y815308D1*
X431442Y791933D2*
Y804357D1*
X411346D1*
Y791933D1*
X421869Y804357D2*
Y796708D1*
X431442Y979964D2*
X411346D1*
Y971342D1*
X412319Y968468D1*
X413269Y967517D1*
X415170Y966567D1*
X418045D1*
X419968Y967517D1*
X420919Y968468D1*
X421869Y971342D1*
X422842Y968468D1*
X423793Y967517D1*
X425694Y966567D1*
X427617D1*
X429518Y967517D1*
X430491Y968468D1*
X431442Y971342D1*
Y979964D1*
X421869D2*
Y971342D1*
X431442Y954643D2*
X430491Y956566D1*
X428568Y958468D1*
X426667Y959440D1*
X423793Y960391D1*
X418995D1*
X416143Y959441D1*
X414220Y958468D1*
X412319Y956567D1*
X411346Y954643D1*
Y950818D1*
X412319Y948917D1*
X414220Y946994D1*
X416143Y946043D1*
X418995Y945093D1*
X423793D1*
X426667Y946043D1*
X428568Y946994D1*
X430491Y948917D1*
X431442Y950818D1*
Y954643D1*
X411346Y923596D2*
X431442Y931268D1*
X411346Y938917D1*
X418045Y936043D2*
Y926470D1*
X421869Y917420D2*
Y908821D1*
X422842Y905947D1*
X423793Y904974D1*
X425694Y904023D1*
X427617D1*
X429518Y904974D1*
X430491Y905946D1*
X431442Y908821D1*
Y917420D1*
X411346D1*
X421869Y910722D2*
X411346Y904023D1*
X431442Y897847D2*
X411346D1*
Y891149D1*
X412319Y888275D1*
X414220Y886351D1*
X416143Y885401D1*
X418995Y884450D1*
X423793D1*
X426667Y885401D1*
X428568Y886351D1*
X430491Y888275D1*
X431442Y891149D1*
Y897847D1*
Y1500614D2*
Y1513039D1*
X411346D1*
Y1500614D1*
X421869Y1513039D2*
Y1505390D1*
X431442Y1494439D2*
X411346D1*
Y1487740D1*
X412319Y1484866D1*
X414220Y1482943D1*
X416143Y1481992D1*
X418995Y1481041D1*
X423793D1*
X426667Y1481992D1*
X428568Y1482943D1*
X430491Y1484866D1*
X431442Y1487740D1*
Y1494439D1*
X426667Y1460518D2*
X428568Y1461468D1*
X430491Y1463392D1*
X431442Y1465293D1*
Y1469118D1*
X430491Y1471041D1*
X428568Y1472942D1*
X426667Y1473915D1*
X423793Y1474866D1*
X418995D1*
X416143Y1473915D1*
X414220Y1472942D1*
X412319Y1471041D1*
X411346Y1469118D1*
Y1465293D1*
X412319Y1463392D1*
X414220Y1461468D1*
X416143Y1460518D1*
X418995D1*
Y1465293D1*
X431442Y1441917D2*
Y1454342D1*
X411346D1*
Y1441918D1*
X421869Y1454342D2*
Y1446693D1*
X431442Y1629949D2*
X411346D1*
Y1621327D1*
X412319Y1618453D1*
X413269Y1617502D1*
X415170Y1616551D1*
X418045D1*
X419968Y1617502D1*
X420919Y1618453D1*
X421869Y1621327D1*
X422842Y1618453D1*
X423793Y1617502D1*
X425694Y1616551D1*
X427617D1*
X429518Y1617502D1*
X430491Y1618453D1*
X431442Y1621327D1*
Y1629949D1*
X421869D2*
Y1621327D1*
X431442Y1604628D2*
X430491Y1606551D1*
X428568Y1608452D1*
X426667Y1609425D1*
X423793Y1610376D1*
X418995D1*
X416143Y1609425D1*
X414220Y1608452D1*
X412319Y1606551D1*
X411346Y1604628D1*
Y1600803D1*
X412319Y1598902D1*
X414220Y1596978D1*
X416143Y1596028D1*
X418995Y1595077D1*
X423793D1*
X426667Y1596028D1*
X428568Y1596978D1*
X430491Y1598902D1*
X431442Y1600803D1*
Y1604628D1*
X411346Y1573581D2*
X431442Y1581252D1*
X411346Y1588902D1*
X418045Y1586027D2*
Y1576455D1*
X421869Y1567405D2*
Y1558805D1*
X422842Y1555931D1*
X423793Y1554958D1*
X425694Y1554008D1*
X427617D1*
X429518Y1554958D1*
X430491Y1555931D1*
X431442Y1558805D1*
Y1567405D1*
X411346D1*
X421869Y1560706D2*
X411346Y1554008D1*
X431442Y1547832D2*
X411346D1*
Y1541133D1*
X412319Y1538259D1*
X414220Y1536336D1*
X416143Y1535385D1*
X418995Y1534435D1*
X423793D1*
X426667Y1535385D1*
X428568Y1536336D1*
X430491Y1538259D1*
X431442Y1541133D1*
Y1547832D1*
X4324581Y5748925D2*
Y5728829D1*
X4333203D1*
X4336077Y5729802D1*
X4337028Y5730753D1*
X4337979Y5732654D1*
Y5735528D1*
X4337028Y5737451D1*
X4336077Y5738402D1*
X4333203Y5739353D1*
X4336077Y5740325D1*
X4337028Y5741276D1*
X4337979Y5743177D1*
Y5745101D1*
X4337028Y5747002D1*
X4336077Y5747975D1*
X4333203Y5748925D1*
X4324581D1*
Y5739353D2*
X4333203D1*
X4349902Y5748925D2*
X4347979Y5747975D1*
X4346078Y5746051D1*
X4345105Y5744150D1*
X4344154Y5741276D1*
Y5736478D1*
X4345105Y5733627D1*
X4346078Y5731703D1*
X4347979Y5729802D1*
X4349902Y5728829D1*
X4353727D1*
X4355628Y5729802D1*
X4357552Y5731703D1*
X4358502Y5733627D1*
X4359453Y5736478D1*
Y5741276D1*
X4358502Y5744150D1*
X4357552Y5746051D1*
X4355628Y5747975D1*
X4353727Y5748925D1*
X4349902D1*
X4380949Y5728829D2*
X4373278Y5748925D1*
X4365629Y5728829D1*
X4368503Y5735528D2*
X4378075D1*
X4387125Y5739353D2*
X4395725D1*
X4398599Y5740325D1*
X4399572Y5741276D1*
X4400522Y5743177D1*
Y5745101D1*
X4399572Y5747002D1*
X4398599Y5747975D1*
X4395725Y5748925D1*
X4387125D1*
Y5728829D1*
X4393824Y5739353D2*
X4400522Y5728829D1*
X4406698Y5748925D2*
Y5728829D1*
X4413397D1*
X4416271Y5729802D1*
X4418194Y5731703D1*
X4419145Y5733627D1*
X4420096Y5736478D1*
Y5741276D1*
X4419145Y5744150D1*
X4418194Y5746051D1*
X4416271Y5747975D1*
X4413397Y5748925D1*
X4406698D1*
X4458136D2*
X4445712D1*
Y5728829D1*
X4458136D1*
X4445712Y5739353D2*
X4453361D1*
X4464312Y5748925D2*
Y5728829D1*
X4471011D1*
X4473885Y5729802D1*
X4475808Y5731703D1*
X4476759Y5733627D1*
X4477709Y5736478D1*
Y5741276D1*
X4476759Y5744150D1*
X4475808Y5746051D1*
X4473885Y5747975D1*
X4471011Y5748925D1*
X4464312D1*
X4498233Y5744150D2*
X4497282Y5746051D1*
X4495359Y5747975D1*
X4493458Y5748925D1*
X4489633D1*
X4487710Y5747975D1*
X4485808Y5746051D1*
X4484836Y5744150D1*
X4483885Y5741276D1*
Y5736478D1*
X4484836Y5733627D1*
X4485808Y5731703D1*
X4487710Y5729802D1*
X4489633Y5728829D1*
X4493458D1*
X4495359Y5729802D1*
X4497282Y5731703D1*
X4498233Y5733627D1*
Y5736478D1*
X4493458D1*
X4516833Y5748925D2*
X4504409D1*
Y5728829D1*
X4516833D1*
X4504409Y5739353D2*
X4512058D1*
X12750878Y4826353D2*
X12770974D1*
Y4834975D1*
X12770001Y4837849D1*
X12769051Y4838800D1*
X12767149Y4839750D1*
X12764275D1*
X12762352Y4838800D1*
X12761401Y4837849D1*
X12760451Y4834975D1*
X12759478Y4837849D1*
X12758527Y4838800D1*
X12756626Y4839750D1*
X12754703D1*
X12752801Y4838800D1*
X12751829Y4837849D1*
X12750878Y4834975D1*
Y4826353D1*
X12760451D2*
Y4834975D1*
X12750878Y4851674D2*
X12751829Y4849751D1*
X12753752Y4847850D1*
X12755653Y4846877D1*
X12758527Y4845926D1*
X12763325D1*
X12766177Y4846877D1*
X12768100Y4847849D1*
X12770001Y4849751D1*
X12770974Y4851674D1*
Y4855499D1*
X12770001Y4857400D1*
X12768100Y4859323D1*
X12766177Y4860274D1*
X12763325Y4861225D1*
X12758527D1*
X12755653Y4860274D1*
X12753752Y4859323D1*
X12751829Y4857400D1*
X12750878Y4855499D1*
Y4851674D1*
X12770974Y4882721D2*
X12750878Y4875050D1*
X12770974Y4867400D1*
X12764275Y4870274D2*
Y4879847D1*
X12760451Y4888897D2*
Y4897497D1*
X12759478Y4900371D1*
X12758527Y4901344D1*
X12756626Y4902294D1*
X12754703D1*
X12752801Y4901344D1*
X12751829Y4900371D1*
X12750878Y4897497D1*
Y4888897D1*
X12770974D1*
X12760451Y4895595D2*
X12770974Y4902294D1*
X12750878Y4908470D2*
X12770974D1*
Y4915169D1*
X12770001Y4918043D1*
X12768100Y4919966D1*
X12766177Y4920917D1*
X12763325Y4921867D1*
X12758527D1*
X12755653Y4920917D1*
X12753752Y4919966D1*
X12751829Y4918043D1*
X12750878Y4915169D1*
Y4908470D1*
Y4959908D2*
Y4947483D1*
X12770974D1*
Y4959908D1*
X12760451Y4947483D2*
Y4955133D1*
X12750878Y4966084D2*
X12770974D1*
Y4972782D1*
X12770001Y4975656D1*
X12768100Y4977580D1*
X12766177Y4978530D1*
X12763325Y4979481D1*
X12758527D1*
X12755653Y4978530D1*
X12753752Y4977580D1*
X12751829Y4975656D1*
X12750878Y4972782D1*
Y4966084D1*
X12755653Y5000005D2*
X12753752Y4999054D1*
X12751829Y4997131D1*
X12750878Y4995229D1*
Y4991405D1*
X12751829Y4989481D1*
X12753752Y4987580D1*
X12755653Y4986607D1*
X12758527Y4985657D1*
X12763325D1*
X12766177Y4986607D1*
X12768100Y4987580D1*
X12770001Y4989481D1*
X12770974Y4991405D1*
Y4995229D1*
X12770001Y4997131D1*
X12768100Y4999054D1*
X12766177Y5000005D1*
X12763325D1*
Y4995229D1*
X12750878Y5018605D2*
Y5006180D1*
X12770974D1*
Y5018605D1*
X12760451Y5006180D2*
Y5013830D1*
X9562280Y467028D2*
X9549855D1*
Y446932D1*
X9562280D1*
X9549855Y457455D2*
X9557504D1*
X9568455Y467028D2*
Y446932D1*
X9575154D1*
X9578028Y447905D1*
X9579951Y449806D1*
X9580902Y451729D1*
X9581853Y454581D1*
Y459379D1*
X9580902Y462253D1*
X9579951Y464154D1*
X9578028Y466077D1*
X9575154Y467028D1*
X9568455D1*
X9602376Y462253D2*
X9601426Y464154D1*
X9599502Y466077D1*
X9597601Y467028D1*
X9593776D1*
X9591853Y466077D1*
X9589952Y464154D1*
X9588979Y462253D1*
X9588028Y459379D1*
Y454581D1*
X9588979Y451729D1*
X9589952Y449806D1*
X9591853Y447905D1*
X9593776Y446932D1*
X9597601D1*
X9599502Y447905D1*
X9601426Y449806D1*
X9602376Y451729D1*
Y454581D1*
X9597601D1*
X9620977Y467028D2*
X9608552D1*
Y446932D1*
X9620977D1*
X9608552Y457455D2*
X9616201D1*
X9430942Y467439D2*
Y447343D1*
X9439564D1*
X9442438Y448316D1*
X9443388Y449267D1*
X9444339Y451168D1*
Y454042D1*
X9443388Y455965D1*
X9442438Y456916D1*
X9439564Y457867D1*
X9442438Y458839D1*
X9443388Y459790D1*
X9444339Y461691D1*
Y463615D1*
X9443388Y465516D1*
X9442438Y466489D1*
X9439564Y467439D1*
X9430942D1*
Y457867D2*
X9439564D1*
X9456263Y467439D2*
X9454339Y466489D1*
X9452438Y464565D1*
X9451465Y462664D1*
X9450515Y459790D1*
Y454993D1*
X9451465Y452141D1*
X9452438Y450217D1*
X9454339Y448316D1*
X9456263Y447343D1*
X9460087D1*
X9461989Y448316D1*
X9463912Y450217D1*
X9464863Y452141D1*
X9465813Y454993D1*
Y459790D1*
X9464863Y462664D1*
X9463912Y464565D1*
X9461989Y466489D1*
X9460087Y467439D1*
X9456263D1*
X9487310Y447343D2*
X9479638Y467439D1*
X9471989Y447343D1*
X9474863Y454042D2*
X9484436D1*
X9493485Y457867D2*
X9502085D1*
X9504959Y458839D1*
X9505932Y459790D1*
X9506883Y461691D1*
Y463615D1*
X9505932Y465516D1*
X9504959Y466489D1*
X9502085Y467439D1*
X9493485D1*
Y447343D1*
X9500184Y457867D2*
X9506883Y447343D1*
X9513058Y467439D2*
Y447343D1*
X9519757D1*
X9522631Y448316D1*
X9524554Y450217D1*
X9525505Y452141D1*
X9526456Y454993D1*
Y459790D1*
X9525505Y462664D1*
X9524554Y464565D1*
X9522631Y466489D1*
X9519757Y467439D1*
X9513058D1*
M02*
